<svg xmlns="http://www.w3.org/2000/svg" xmlns:xlink="http://www.w3.org/1999/xlink" fill="none" version="1.1" width="272.78515625" height="271.177734375" viewBox="0 0 272.78515625 271.177734375"><g transform="matrix(0.6237236857414246,0.7816449403762817,-0.7816449403762817,0.6237236857414246,58.4168059243093,-121.35018616213347)"><g transform="matrix(0,-1,1,0,13.5753173828125,327.6439208984375)"><path d="M263.023119140625,230.4707017578125L303.957619140625,218.73940175781252C308.469619140625,217.4391017578125,311.81761914062497,220.0042017578125,311.426619140625,224.46620175781248L307.810619140625,264.8863017578125C307.419619140625,269.34830175781246,303.440619140625,274.0123017578125,298.889619140625,275.3063017578125L257.977819140625,287.02130175781247C253.46521914062498,288.3223017578125,250.09881914062498,285.7543017578125,250.508519140625,281.2943017578125L254.102719140625,240.8912017578125C254.493119140625,236.4291017578125,258.510519140625,231.77100175781248,263.023119140625,230.4707017578125ZM183.151919140625,169.1035017578125L224.086119140625,157.3721617578125C228.598719140625,156.0718687578125,231.965119140625,158.6398717578125,231.555419140625,163.0989917578125L227.964419140625,203.4834017578125C227.573719140625,207.9454017578125,223.595019140625,212.6096017578125,219.04401914062498,213.9039017578125L178.112669140625,225.6157017578125C173.600079140625,226.9160017578125,170.233642140625,224.34800175781248,170.643398240625,219.8888017578125L174.237549140625,179.4855017578125C174.660569140625,175.0680017578125,178.619979140625,170.4007017578125,183.151919140625,169.1035017578125Z" fill="#FEAE30" fill-opacity="1"/></g><g transform="matrix(0,-1,1,0,-43.369384765625,353.868896484375)"><path d="M157.939055859375,281.770240625C154.413202859375,287.316440625,154.424129859375,294.232540625,157.562085859375,299.866140625C164.953105859375,312.198140625,182.644255859375,330.844140625,205.654955859375,349.58214062499997C228.164655859375,367.865140625,249.588255859375,381.155140625,263.14275585937503,386.12714062500004C269.492755859375,388.200140625,276.627755859375,386.801140625,281.53675585937503,382.126140625C281.444755859375,382.210140625,281.400755859375,382.36114062499996,281.289755859375,382.443140625L352.548755859375,316.32714062499997C352.54175585937503,316.247140625,352.403755859375,316.245140625,352.530755859375,316.068140625C354.655755859375,313.500140625,354.197755859375,309.65414062499997,351.527755859375,307.552140625C350.513755859375,306.720140625,349.279755859375,306.40614062500003,348.050755859375,306.31014062500003L291.360755859375,308.750140625L306.70975585937504,237.908440625C307.279755859375,234.936540625,306.18875585937496,231.721340625,303.58975585937503,229.669940625C301.170755859375,227.726340625,298.005755859375,227.382940625,295.311755859375,228.299640625L227.823555859375,258.010040625L218.654755859375,203.890090625C218.635655859375,203.886970625,218.566555859375,204.073500625,218.578655859375,203.996630625C218.380655859375,202.503360625,217.602255859375,201.056330625,216.307455859375,200.001890625C213.640555859375,197.880528625,209.77165585937502,198.235649625,207.643055859375,200.822380625C207.541555859375,200.964230625,207.54375585937498,200.826280625,207.441255859375,200.849700625L157.007155859375,282.788440625C157.321885859375,282.423340625,157.672905859375,282.202240625,157.939055859375,281.770240625Z" fill="#FED530" fill-opacity="1"/></g><g transform="matrix(0,-1,1,0,82.894287109375,379.230712890625)"><path d="M289.8692,156.205642890625C274.3894,143.678812890625,251.6903,146.049542890625,239.10241,161.539512890625C226.57246,177.038412890625,228.94339,199.737512890625,244.4331,212.325412890625C259.9129,224.852312890625,282.6121,222.481512890625,295.2,206.991612890625C307.7879,191.50171289062502,305.3619,168.774212890625,289.8692,156.205642890625Z" fill="#FEAE30" fill-opacity="1"/></g><g transform="matrix(0.6521521210670471,-0.7580881714820862,0.7580881714820862,0.6521521210670471,5.963676780163951,193.04417598275904)"><path d="M218.9148671875,169.0235595703125L249.1748671875,169.0235595703125L249.1748671875,160.8635595703125L239.72286718750001,160.8635595703125L239.72286718750001,118.6355595703125L232.3108671875,118.6355595703125C229.1148671875,120.6755595703125,225.7148671875,121.9675595703125,220.6148671875,122.8515595703125L220.6148671875,129.1075595703125L229.7948671875,129.1075595703125L229.7948671875,160.8635595703125L218.9148671875,160.8635595703125L218.9148671875,169.0235595703125Z" fill="#FFFFFF" fill-opacity="1"/></g></g></svg>