<svg xmlns="http://www.w3.org/2000/svg" xmlns:xlink="http://www.w3.org/1999/xlink" fill="none" version="1.1" width="272.891357421875" height="271.350830078125" viewBox="0 0 272.891357421875 271.350830078125"><g transform="matrix(0.6273650527000427,0.7787253260612488,-0.7787253260612488,0.6273650527000427,57.6353272114502,-120.44519522548944)"><g transform="matrix(0,-1,1,0,12.9952392578125,327.0638427734375)"><path d="M262.443041015625,230.4707017578125L303.377541015625,218.73940175781252C307.889541015625,217.4391017578125,311.23754101562497,220.0042017578125,310.846541015625,224.46620175781248L307.230541015625,264.8863017578125C306.839541015625,269.34830175781246,302.860541015625,274.0123017578125,298.309541015625,275.3063017578125L257.397741015625,287.02130175781247C252.88514101562498,288.3223017578125,249.51874101562498,285.7543017578125,249.928441015625,281.2943017578125L253.522641015625,240.8912017578125C253.913041015625,236.4291017578125,257.930441015625,231.77100175781248,262.443041015625,230.4707017578125ZM182.571841015625,169.1035017578125L223.506041015625,157.3721617578125C228.018641015625,156.0718687578125,231.385041015625,158.6398717578125,230.975341015625,163.0989917578125L227.384341015625,203.4834017578125C226.993641015625,207.9454017578125,223.014941015625,212.6096017578125,218.46394101562498,213.9039017578125L177.532591015625,225.6157017578125C173.020001015625,226.9160017578125,169.653564015625,224.34800175781248,170.063320115625,219.8888017578125L173.657471015625,179.4855017578125C174.080491015625,175.0680017578125,178.039901015625,170.4007017578125,182.571841015625,169.1035017578125Z" fill="#7C30FE" fill-opacity="1"/></g><g transform="matrix(0,-1,1,0,-43.949462890625,353.288818359375)"><path d="M157.358977734375,281.770240625C153.833124734375,287.316440625,153.844051734375,294.232540625,156.982007734375,299.866140625C164.373027734375,312.198140625,182.064177734375,330.844140625,205.074877734375,349.58214062499997C227.584577734375,367.865140625,249.008177734375,381.155140625,262.56267773437503,386.12714062500004C268.912677734375,388.200140625,276.047677734375,386.801140625,280.95667773437503,382.126140625C280.864677734375,382.210140625,280.820677734375,382.36114062499996,280.709677734375,382.443140625L351.968677734375,316.32714062499997C351.96167773437503,316.247140625,351.823677734375,316.245140625,351.950677734375,316.068140625C354.075677734375,313.500140625,353.617677734375,309.65414062499997,350.947677734375,307.552140625C349.933677734375,306.720140625,348.699677734375,306.40614062500003,347.470677734375,306.31014062500003L290.780677734375,308.750140625L306.12967773437504,237.908440625C306.699677734375,234.936540625,305.60867773437496,231.721340625,303.00967773437503,229.669940625C300.590677734375,227.726340625,297.425677734375,227.382940625,294.731677734375,228.299640625L227.243477734375,258.010040625L218.074677734375,203.890090625C218.055577734375,203.886970625,217.986477734375,204.073500625,217.998577734375,203.996630625C217.800577734375,202.503360625,217.022177734375,201.056330625,215.727377734375,200.001890625C213.060477734375,197.880528625,209.19157773437502,198.235649625,207.062977734375,200.822380625C206.961477734375,200.964230625,206.96367773437498,200.826280625,206.861177734375,200.849700625L156.427077734375,282.788440625C156.741807734375,282.423340625,157.092827734375,282.202240625,157.358977734375,281.770240625Z" fill="#A530FE" fill-opacity="1"/></g><g transform="matrix(0,-1,1,0,82.314208984375,378.650634765625)"><path d="M289.289121875,156.205642890625C273.809321875,143.678812890625,251.110221875,146.049542890625,238.522331875,161.539512890625C225.992381875,177.038412890625,228.363311875,199.737512890625,243.853021875,212.325412890625C259.332821875,224.852312890625,282.032021875,222.481512890625,294.619921875,206.991612890625C307.207821875,191.50171289062502,304.781821875,168.774212890625,289.289121875,156.205642890625Z" fill="#7C30FE" fill-opacity="1"/></g><g transform="matrix(0.6521521210670471,-0.7580881714820862,0.7580881714820862,0.6521521210670471,5.7618978347672964,192.60442561766104)"><path d="M215.6827890625,169.0235595703125L249.4107890625,169.0235595703125L249.4107890625,160.59155957031248L238.5307890625,160.59155957031248C236.1507890625,160.59155957031248,232.8187890625,160.8635595703125,230.2347890625,161.2035595703125C239.4147890625,152.1595595703125,247.0307890625,142.3675595703125,247.0307890625,133.2555595703125C247.0307890625,123.8715595703125,240.7067890625,117.75155957031251,231.1867890625,117.75155957031251C224.3187890625,117.75155957031251,219.8307890625,120.4035595703125,215.1387890625,125.4355595703125L220.7147890625,130.8075595703125C223.2307890625,128.0195595703125,226.2227890625,125.6395595703125,229.8947890625,125.6395595703125C234.7227890625,125.6395595703125,237.4427890625,128.7675595703125,237.4427890625,133.7315595703125C237.4427890625,141.5515595703125,229.4187890625,151.0035595703125,215.6827890625,163.2435595703125L215.6827890625,169.0235595703125Z" fill="#FFFFFF" fill-opacity="1"/></g></g></svg>