<svg xmlns="http://www.w3.org/2000/svg" xmlns:xlink="http://www.w3.org/1999/xlink" fill="none" version="1.1" width="272.8837890625" height="271.33837890625" viewBox="0 0 272.8837890625 271.33837890625"><g transform="matrix(0.6270995736122131,0.7789390683174133,-0.7789390683174133,0.6270995736122131,57.69222976132005,-120.51134436811844)"><g transform="matrix(0,-1,1,0,13.0377197265625,327.1063232421875)"><path d="M262.485521484375,230.4707017578125L303.420021484375,218.73940175781252C307.932021484375,217.4391017578125,311.28002148437497,220.0042017578125,310.889021484375,224.46620175781248L307.273021484375,264.8863017578125C306.882021484375,269.34830175781246,302.903021484375,274.0123017578125,298.352021484375,275.3063017578125L257.440221484375,287.02130175781247C252.92762148437498,288.3223017578125,249.56122148437498,285.7543017578125,249.970921484375,281.2943017578125L253.565121484375,240.8912017578125C253.955521484375,236.4291017578125,257.972921484375,231.77100175781248,262.485521484375,230.4707017578125ZM182.614321484375,169.1035017578125L223.548521484375,157.3721617578125C228.061121484375,156.0718687578125,231.427521484375,158.6398717578125,231.017821484375,163.0989917578125L227.426821484375,203.4834017578125C227.036121484375,207.9454017578125,223.057421484375,212.6096017578125,218.50642148437498,213.9039017578125L177.575071484375,225.6157017578125C173.062481484375,226.9160017578125,169.696044484375,224.34800175781248,170.105800584375,219.8888017578125L173.699951484375,179.4855017578125C174.122971484375,175.0680017578125,178.082381484375,170.4007017578125,182.614321484375,169.1035017578125Z" fill="#C72339" fill-opacity="1"/></g><g transform="matrix(0,-1,1,0,-43.906982421875,353.331298828125)"><path d="M157.401458203125,281.770240625C153.875605203125,287.316440625,153.886532203125,294.232540625,157.024488203125,299.866140625C164.415508203125,312.198140625,182.106658203125,330.844140625,205.117358203125,349.58214062499997C227.627058203125,367.865140625,249.050658203125,381.155140625,262.60515820312503,386.12714062500004C268.955158203125,388.200140625,276.090158203125,386.801140625,280.99915820312503,382.126140625C280.907158203125,382.210140625,280.863158203125,382.36114062499996,280.752158203125,382.443140625L352.011158203125,316.32714062499997C352.00415820312503,316.247140625,351.866158203125,316.245140625,351.993158203125,316.068140625C354.118158203125,313.500140625,353.660158203125,309.65414062499997,350.990158203125,307.552140625C349.976158203125,306.720140625,348.742158203125,306.40614062500003,347.513158203125,306.31014062500003L290.823158203125,308.750140625L306.17215820312504,237.908440625C306.742158203125,234.936540625,305.65115820312496,231.721340625,303.05215820312503,229.669940625C300.633158203125,227.726340625,297.468158203125,227.382940625,294.774158203125,228.299640625L227.285958203125,258.010040625L218.117158203125,203.890090625C218.098058203125,203.886970625,218.028958203125,204.073500625,218.041058203125,203.996630625C217.843058203125,202.503360625,217.064658203125,201.056330625,215.769858203125,200.001890625C213.102958203125,197.880528625,209.23405820312502,198.235649625,207.105458203125,200.822380625C207.003958203125,200.964230625,207.00615820312498,200.826280625,206.903658203125,200.849700625L156.469558203125,282.788440625C156.784288203125,282.423340625,157.135308203125,282.202240625,157.401458203125,281.770240625Z" fill="#FE304B" fill-opacity="1"/></g><g transform="matrix(0,-1,1,0,82.356689453125,378.693115234375)"><path d="M289.33160234375,156.205642890625C273.85180234375,143.678812890625,251.15270234375,146.049542890625,238.56481234375,161.539512890625C226.03486234375,177.038412890625,228.40579234375,199.737512890625,243.89550234375,212.325412890625C259.37530234375,224.852312890625,282.07450234375,222.481512890625,294.66240234375,206.991612890625C307.25030234375,191.50171289062502,304.82430234375,168.774212890625,289.33160234375,156.205642890625Z" fill="#C72339" fill-opacity="1"/></g><g transform="matrix(0.6521521210670471,-0.7580881714820862,0.7580881714820862,0.6521521210670471,5.7766745757180615,192.63662955853943)"><path d="M231.36526953125,169.9755595703125C241.02126953125,169.9755595703125,249.11326953125,164.6715595703125,249.11326953125,155.4235595703125C249.11326953125,148.7595595703125,244.76126953125,144.5435595703125,239.11726953125,142.97955957031252L239.11726953125,142.63955957031249C244.42126953125,140.5315595703125,247.48126953125,136.5875595703125,247.48126953125,131.1475595703125C247.48126953125,122.5115595703125,240.88526953125,117.75155957031251,231.16126953125,117.75155957031251C225.24526953125,117.75155957031251,220.41726953124999,120.1315595703125,216.06526953125,123.8715595703125L221.23326953125,130.0595595703125C224.15726953125,127.27155957031249,227.08126953125,125.6395595703125,230.68526953125001,125.6395595703125C234.96926953125,125.6395595703125,237.41726953124999,127.9515595703125,237.41726953124999,131.8955595703125C237.41726953124999,136.4515595703125,234.42526953125,139.57955957031248,225.24526953125,139.57955957031248L225.24526953125,146.7875595703125C236.12526953125,146.7875595703125,239.04926953125,149.8475595703125,239.04926953125,154.8115595703125C239.04926953125,159.2995595703125,235.58126953125,161.8155595703125,230.48126953125,161.8155595703125C225.85726953125,161.8155595703125,222.25326953125,159.5715595703125,219.26126953125,156.6475595703125L214.56926953125,162.97155957031248C218.10526953125,166.98355957031248,223.47726953125,169.9755595703125,231.36526953125,169.9755595703125Z" fill="#FFFFFF" fill-opacity="1"/></g></g></svg>