<svg xmlns="http://www.w3.org/2000/svg" xmlns:xlink="http://www.w3.org/1999/xlink" fill="none" version="1.1" width="200" height="200" viewBox="0 0 200 200"><g><g><path d="M36,0L164,0Q200,0,200,36L200,164Q200,200,164,200L36,200Q0,200,0,164L0,36Q0,0,36,0Z" fill="#EC5D85" fill-opacity="1"/></g><g><path d="M100,47.2579888671875L110.2,47.2579888671875L122.908,28.4460088671875C132.602,18.6180088671875,140.416,28.5300088671875,135.38,37.3739888671875L128.678,47.4339888671875C179,48.4159888671875,179,55.8339888671875,179,110.9179888671875C179,174.5800888671875,179,176.6340888671875,100,176.6340888671875C21,176.6340888671875,21,174.5800888671875,21,110.9179888671875C21,56.6799888671875,21,48.6519888671875,70.44200000000001,47.4499888671875L62.74,36.0499888671875C56.634,25.3260088671875,70.032,18.3920088671875,75.374,27.7740088671875L87.174,47.2679888671875C90.726,47.2579888671875,95.218,47.2579888671875,100,47.2579888671875Z" fill="#EF85A7" fill-opacity="1"/></g><g><path d="M100,66.1300048828125C165,66.1300048828125,165,66.1300048828125,165,113.1300048828125C165,160.1300048828125,165,161.6440048828125,100,161.6440048828125C35,161.6440048828125,35,160.1300048828125,35,113.1300048828125C35,66.1300125122025,35,66.1300048828125,100,66.1300048828125Z" fill="#EC5D85" fill-opacity="1"/></g><g><path d="M54.9999713671875,108.9999130859375C52.7277013671875,108.9999130859375,50.6504313671875,107.7162130859375,49.6339723671875,105.6839130859375C48.1517483671875,102.72041308593751,49.3524933671875,99.1163130859375,52.3159713671875,97.63391308593751L76.3160013671875,85.6339570859375C79.2801013671875,84.1520160859375,82.8843013671875,85.3537220859375,84.3660013671875,88.3179530859375C85.84790136718749,91.2820630859375,84.6462013671875,94.88628308593749,81.6820013671875,96.3679130859375L57.6819713671875,108.3679130859375C56.8494113671875,108.7847130859375,55.9310013671875,109.0011130859375,54.9999713671875,108.9999130859375ZM147.0000013671875,108.9999130859375C146.1330013671875,108.99951308593751,145.27660136718748,108.8104130859375,144.49000136718752,108.4459130859375L118.4900013671875,96.4459130859375C115.4807013671875,95.0591130859375,114.1654013671875,91.4953730859375,115.5520013671875,88.4859630859375C116.9404013671875,85.4770810859375,120.5051013671875,84.1634750859375,123.5140013671875,85.5519640859375L149.5139013671875,97.5520130859375C152.0729013671875,98.7326130859375,153.4649013671875,101.53461308593751,152.8609013671875,104.2869130859375C152.2559013671875,107.0391130859375,149.81790136718752,109.0000130859375,147.0000013671875,108.9999130859375ZM88.80000136718749,130.2499130859375C87.85390136718749,130.2476130859375,86.96440136718749,129.7991130859375,86.4000013671875,129.03991308593748C85.4072013671875,127.7148130859375,85.6758013671875,125.8359130859375,87.00000136718751,124.8419130859375L100.3800013671875,114.8979130859375L110.2140013671875,125.17591308593751C111.35790136718751,126.3735130859375,111.31510136718751,128.2714130859375,110.1184013671875,129.4163130859375C108.9217013671875,130.5611130859375,107.0237013671875,130.5198130859375,105.8780013671875,129.3239130859375L99.7080013671875,122.8739130859375L90.5840013671875,129.6559130859375C90.06880136718749,130.0409130859375,89.4431013671875,130.2492130859375,88.80000136718749,130.2499130859375Z" fill="#EF85A7" fill-opacity="1"/></g><g><path d="M12.800048828125,72.132033203125C15.736048828125,92.036033203125,19.216048828125,100.878033203125,21.500048828125,141.532033203125C24.358048828125,141.958033203125,56.208048828125,143.494033203125,61.354048828125,126.956033203125C61.706648828125,126.30753320312499,61.820548828125,125.555933203125,61.676048828125,124.83203320312501Q55.698048828125,109.14203320312501,28.626048828125,113.032033203125Q26.602048828125,84.41803320312499,26.380048828125,66.384033203125L12.800048828125,72.132033203125ZM70.752048828125,74.812023203125L77.552048828125,134.026033203125L84.318048828125,134.026033203125L79.148048828125,74.440033203125L70.752048828125,74.812023203125ZM60.454048828125,104.744033203125L69.338048828125,104.744033203125L72.482048828125,135.724033203125L66.26604882812501,136.086033203125L60.454048828125,104.744033203125ZM87.278048828125,106.052033203125L96.224048828125,106.052033203125L96.224048828125,137.760033203125L89.608048828125,137.760033203125L87.278048828125,106.052033203125ZM57.930048828125,89.448033203125L62.108048828125,89.448033203125L63.138048828125,100.970033203125L59.444048828125,101.41203320312499L57.930048828125,89.448033203125ZM63.866048828125,89.448033203125L68.044048828125,89.448033203125L68.54004882812501,100.348033203125L65.140048828125,100.664033203125L63.866048828125,89.448033203125ZM91.918048828125,89.822033203125L95.718048828125,89.822033203125L95.718048828125,101.986033203125L91.918048828125,101.986033203125L91.918048828125,89.822033203125ZM85.984048828125,89.822033203125L90.320048828125,89.822033203125L90.320048828125,101.986033203125L87.072048828125,101.986033203125L85.984048828125,89.822033203125Z" fill="#FFFFFF" fill-opacity="1"/></g><g><path d="M47.5720361328125,126.077995703125C45.824936132812496,127.747095703125,43.9674361328125,129.296595703125,42.0120361328125,130.715995703125C40.1725761328125,131.991395703125,38.2450861328125,133.134995703125,36.2440361328125,134.137995703125C36.0898361328125,134.263095703125,35.8784561328125,134.291195703125,35.6969561328125,134.210595703125C35.5154561328125,134.129995703125,35.3945461328125,133.954295703125,35.3840361328125,133.755995703125C34.9391631328125,131.851695703125,34.6052661328125,129.923055703125,34.3840371328125,127.979985703125C34.1080361328125,125.599995703125,34.0020370328125,122.963985703125,33.9620361328125,120.877990703125C33.9620361328125,120.817992703125,33.9620361328125,120.387992903125,34.5500371328125,120.505989103125C36.8202161328125,120.967315703125,39.0540461328125,121.592275703125,41.2340361328125,122.375995703125C43.4069261328125,123.216155703125,45.5187361328125,124.206545703125,47.5540361328125,125.339985703125C47.6560361328125,125.389995703125,48.0460361328125,125.629985703125,47.5720361328125,126.077995703125Z" fill="#EB5480" fill-opacity="1"/></g><g><path d="M100.251953125,72.132033203125C103.187953125,92.036033203125,106.667953125,100.878033203125,108.951953125,141.532033203125C111.80995312499999,141.958033203125,143.65995312500002,143.494033203125,148.805953125,126.956033203125C149.158553125,126.30753320312499,149.272453125,125.555933203125,149.127953125,124.83203320312501Q143.149953125,109.14203320312501,116.077953125,113.032033203125Q114.05395312499999,84.41803320312499,113.831953125,66.384033203125L100.251953125,72.132033203125ZM158.203953125,74.812023203125L165.003953125,134.026033203125L171.769953125,134.026033203125L166.599953125,74.440033203125L158.203953125,74.812023203125ZM147.905953125,104.744033203125L156.789953125,104.744033203125L159.93395312500002,135.724033203125L153.717953125,136.086033203125L147.905953125,104.744033203125ZM174.729953125,106.052033203125L183.675953125,106.052033203125L183.675953125,137.760033203125L177.059953125,137.760033203125L174.729953125,106.052033203125ZM145.381953125,89.448033203125L149.559953125,89.448033203125L150.589953125,100.970033203125L146.895953125,101.41203320312499L145.381953125,89.448033203125ZM151.317953125,89.448033203125L155.495953125,89.448033203125L155.991953125,100.348033203125L152.591953125,100.664033203125L151.317953125,89.448033203125ZM179.369953125,89.822033203125L183.169953125,89.822033203125L183.169953125,101.986033203125L179.369953125,101.986033203125L179.369953125,89.822033203125ZM173.435953125,89.822033203125L177.77195312499998,89.822033203125L177.77195312499998,101.986033203125L174.523953125,101.986033203125L173.435953125,89.822033203125Z" fill="#FFFFFF" fill-opacity="1"/></g><g><path d="M135.0240625,126.077995703125C133.2769625,127.747095703125,131.4194625,129.296595703125,129.4640625,130.715995703125C127.6245925,131.991395703125,125.6971025,133.134995703125,123.6960625,134.137995703125C123.5418625,134.263095703125,123.3304725,134.291195703125,123.1489825,134.210595703125C122.9674825,134.129995703125,122.8465725,133.954295703125,122.8360625,133.755995703125C122.3911815,131.851695703125,122.0572895,129.923055703125,121.8360595,127.979985703125C121.5600585,125.599995703125,121.4540558,122.963985703125,121.4140625,120.877990703125C121.4140625,120.817992703125,121.4140625,120.387992903125,122.0020595,120.505989103125C124.2722425,120.967315703125,126.5060725,121.592275703125,128.6860625,122.375995703125C130.8589525,123.216155703125,132.9707625,124.206545703125,135.0060625,125.339985703125C135.1080625,125.389995703125,135.4980625,125.629985703125,135.0240625,126.077995703125Z" fill="#EB5480" fill-opacity="1"/></g></g></svg>