<svg xmlns="http://www.w3.org/2000/svg" xmlns:xlink="http://www.w3.org/1999/xlink" fill="none" version="1.1" width="200" height="157.1429443359375" viewBox="0 0 200 157.1429443359375"><g><g><path d="M157.143,0.0000171661376953125L28.5714,0.0000171661376953125L28.5714,14.285717166137696L14.2857,14.285717166137696L14.2857,28.571417166137696L0,28.571417166137696L0,142.8570171661377L14.2857,142.8570171661377L14.2857,157.1430171661377L200,157.1430171661377L200,100.0000171661377L185.714,100.0000171661377L185.714,71.4286171661377L171.429,71.4286171661377L171.429,14.285717166137696L157.143,14.285717166137696L157.143,0.0000171661376953125Z" fill="#000000" fill-opacity="1"/></g><g><path d="M42.857114149475095,14.28573226928711L142.8567141494751,14.28573226928711L142.8567141494751,28.571432269287108L157.1427141494751,28.571432269287108L157.1427141494751,85.71433226928711L171.4287141494751,85.71433226928711L171.4287141494751,114.28573226928711L185.7147141494751,114.28573226928711L185.7147141494751,142.8567322692871L28.571414149475096,142.8567322692871L28.571414149475096,128.5717322692871L14.285714149475098,128.5717322692871L14.285714149475098,100.0000322692871L100.00001414947509,100.0000322692871L100.00001414947509,71.4286322692871L71.4286141494751,71.4286322692871L71.4286141494751,85.71433226928711L14.285714149475098,85.71433226928711L14.285714149475098,42.857132269287106L28.571414149475096,42.857132269287106L28.571414149475096,28.571432269287108L42.857114149475095,28.571432269287108L42.857114149475095,14.28573226928711Z" fill="#AB6E46" fill-opacity="1"/></g><g><path d="M85.71428680419922,28.57144546508789L128.57138680419922,28.57144546508789L128.57138680419922,42.85714546508789L85.71428680419922,42.85714546508789L85.71428680419922,28.57144546508789ZM128.57138680419922,42.85714546508789L142.85718680419922,42.85714546508789L142.85718680419922,57.14284546508789L128.57138680419922,57.14284546508789L128.57138680419922,42.85714546508789Z" fill="#E9BFAD" fill-opacity="1"/></g></g></svg>