<svg xmlns="http://www.w3.org/2000/svg" xmlns:xlink="http://www.w3.org/1999/xlink" fill="none" version="1.1" width="150" height="198.056884765625" viewBox="0 0 150 198.056884765625"><g><g><path d="M21.794874392089845,79.46719360351562C21.282054392089844,79.46719360351562,20.897434392089842,79.46719360351562,20.384614392089844,79.59539760351562C16.538464392089843,80.36463160351562,14.102565392089843,84.08258360351563,14.871795392089844,87.92873360351562L35.512864392089845,189.21119360351562C36.153864392089844,192.54419360351562,39.102564392089846,194.85219360351562,42.43586439208984,194.85219360351562L108.97436439208984,194.85219360351562C112.30766439208985,194.85219360351562,115.25606439208984,192.54419360351562,115.89706439208985,189.21119360351562L136.53806439208984,87.92873360351562C136.66706439208986,87.41591360351562,136.66706439208986,87.03129360351562,136.66706439208986,86.51847360351563C136.66706439208986,82.67232360351562,133.46106439208984,79.46719360351562,129.61506439208983,79.46719360351562L21.794874392089845,79.46719360351562Z" fill="#E9B7D4" fill-opacity="1"/></g><g><path d="M108.97440238037109,198.05706207275392L42.43590238037109,198.05706207275392C37.5641023803711,198.05706207275392,33.333302380371094,194.5950620727539,32.43590238037109,189.8520620727539L11.794872380371094,88.5697620727539C10.641025380371094,83.05694207275391,14.230772380371093,77.5441120727539,19.743592380371094,76.51847107275391C20.384612380371095,76.3902660727539,21.153842380371096,76.2620620727539,21.79490238037109,76.2620620727539L129.4870023803711,76.2620620727539C132.1790023803711,76.2620620727539,134.74400238037111,77.2877020727539,136.7950023803711,79.2107820727539C138.7180023803711,81.13386207275391,139.7440023803711,83.69796207275391,139.7440023803711,86.5184620727539C139.7440023803711,87.15946207275391,139.6150023803711,87.92876207275391,139.4870023803711,88.5697620727539L118.84600238037109,189.8520620727539C118.0770023803711,194.5950620727539,113.84600238037109,198.05706207275392,108.97440238037109,198.05706207275392ZM21.79490238037109,82.6723220727539C21.538462380371094,82.6723220727539,21.28205238037109,82.6723220727539,21.025642380371096,82.80053207275391C20.000002380371093,83.05694207275391,19.102562380371094,83.5697620727539,18.589742380371092,84.4671920727539C18.076922380371094,85.3646320727539,17.820512380371092,86.3902620727539,18.076922380371094,87.41586207275391L38.71790238037109,188.6980620727539C39.102602380371096,190.4930620727539,40.64100238037109,191.7750620727539,42.43590238037109,191.7750620727539L108.97440238037109,191.7750620727539C110.7692023803711,191.7750620727539,112.4360023803711,190.4930620727539,112.6920023803711,188.6980620727539L133.3330023803711,87.4159620727539C133.3330023803711,87.15946207275391,133.46200238037108,86.90306207275391,133.46200238037108,86.64666207275391C133.46200238037108,85.62104207275391,133.07700238037108,84.5954020727539,132.30800238037108,83.95437207275391C131.5380023803711,83.1851420727539,130.6410023803711,82.80053207275391,129.6150023803711,82.80053207275391L21.79490238037109,82.6723220727539Z" fill="#222222" fill-opacity="1"/></g><g><path d="M71.2820519506836,115.4928346899414C67.30769195068359,115.4928346899414,64.1025619506836,112.2877046899414,64.1025619506836,108.3133446899414C64.1025619506836,106.90309468994141,65.2564119506836,105.7492446899414,66.66666195068359,105.7492446899414C68.0769219506836,105.7492446899414,69.23076195068359,106.90309468994141,69.23076195068359,108.3133446899414C69.23076195068359,109.46719468994141,70.12820195068359,110.36463468994141,71.2820519506836,110.36463468994141C72.43590195068359,110.36463468994141,73.3333319506836,109.46719468994141,73.3333319506836,108.3133446899414C73.3333319506836,106.90309468994141,74.4871619506836,105.7492446899414,75.89746195068359,105.7492446899414C77.3076619506836,105.7492446899414,78.46156195068359,106.90309468994141,78.46156195068359,108.3133446899414C78.46156195068359,112.2877046899414,75.2563619506836,115.4928346899414,71.2820519506836,115.4928346899414Z" fill="#343434" fill-opacity="1"/></g><g><path d="M80.25640955566406,115.4928346899414C76.28204955566406,115.4928346899414,73.07691955566406,112.2877046899414,73.07691955566406,108.3133446899414C73.07691955566406,106.90309468994141,74.23076955566407,105.7492446899414,75.64101955566406,105.7492446899414C77.05127955566407,105.7492446899414,78.20511955566406,106.90309468994141,78.20511955566406,108.3133446899414C78.20511955566406,109.46719468994141,79.10255955566406,110.36463468994141,80.25640955566406,110.36463468994141C81.41025955566406,110.36463468994141,82.30768955566407,109.46719468994141,82.30768955566407,108.3133446899414C82.30768955566407,106.90309468994141,83.46151955566407,105.7492446899414,84.87181955566406,105.7492446899414C86.28201955566406,105.7492446899414,87.43591955566406,106.90309468994141,87.43591955566406,108.3133446899414C87.43591955566406,112.2877046899414,84.23071955566407,115.4928346899414,80.25640955566406,115.4928346899414Z" fill="#343434" fill-opacity="1"/></g><g><path d="M103.46154239501953,119.85180229492187L93.58974239501953,119.85180229492187C92.17949239501954,119.85180229492187,91.02564239501953,118.69796229492188,91.02564239501953,117.28770229492187C91.02564239501953,115.87745229492188,92.17949239501954,114.72360229492188,93.58974239501953,114.72360229492188L103.46154239501953,114.72360229492188C104.87184239501953,114.72360229492188,106.02564239501953,115.87745229492188,106.02564239501953,117.28770229492187C106.02564239501953,118.69796229492188,104.87184239501953,119.85180229492187,103.46154239501953,119.85180229492187Z" fill="#FF9596" fill-opacity="1"/></g><g><path d="M102.820534765625,109.0825792578125C101.410234765625,109.0825792578125,100.256404765625,107.9287292578125,100.256404765625,106.5184792578125C100.256404765625,105.3646292578125,99.35897476562499,104.46718925781249,98.205124765625,104.46718925781249C97.051274765625,104.46718925781249,96.15383476562499,105.3646292578125,96.15383476562499,106.5184792578125C96.15383476562499,107.9287292578125,94.999994765625,109.0825792578125,93.589734765625,109.0825792578125C92.179484765625,109.0825792578125,91.025634765625,107.9287292578125,91.025634765625,106.5184792578125C91.025634765625,102.5441192578125,94.230764765625,99.3389892578125,98.205124765625,99.3389892578125C102.179434765625,99.3389892578125,105.384634765625,102.5441192578125,105.384634765625,106.5184792578125C105.384634765625,107.9287292578125,104.230734765625,109.0825792578125,102.820534765625,109.0825792578125Z" fill="#282829" fill-opacity="1"/></g><g><path d="M58.58974674072266,119.85180229492187L48.71794674072265,119.85180229492187C47.307696740722655,119.85180229492187,46.153846740722656,118.69796229492188,46.153846740722656,117.28770229492187C46.153846740722656,115.87745229492188,47.307696740722655,114.72360229492188,48.71794674072265,114.72360229492188L58.58974674072266,114.72360229492188C60.00004674072265,114.72360229492188,61.153846740722656,115.87745229492188,61.153846740722656,117.28770229492187C61.153846740722656,118.69796229492188,60.00004674072265,119.85180229492187,58.58974674072266,119.85180229492187Z" fill="#FF9596" fill-opacity="1"/></g><g><path d="M57.94873911132812,109.0825792578125C56.538439111328124,109.0825792578125,55.384609111328125,107.9287292578125,55.384609111328125,106.5184792578125C55.384609111328125,105.3646292578125,54.487179111328125,104.46718925781249,53.333329111328126,104.46718925781249C52.17947911132813,104.46718925781249,51.282039111328125,105.3646292578125,51.282039111328125,106.5184792578125C51.282039111328125,107.9287292578125,50.12819911132812,109.0825792578125,48.71793911132812,109.0825792578125C47.30768911132812,109.0825792578125,46.153839111328125,107.9287292578125,46.153839111328125,106.5184792578125C46.153839111328125,102.5441192578125,49.35896911132812,99.3389892578125,53.333329111328126,99.3389892578125C57.30763911132813,99.3389892578125,60.51283911132813,102.5441192578125,60.51283911132813,106.5184792578125C60.51283911132813,107.9287292578125,59.35893911132813,109.0825792578125,57.94873911132812,109.0825792578125Z" fill="#2F2F2F" fill-opacity="1"/></g><g><path d="M24.10256315551758,125.7492450732422C23.461543155517578,125.7492450732422,22.820513155517578,125.87744907324219,22.307693155517576,126.00565307324219C18.589743155517578,127.03130007324219,16.41025515551758,130.87744007324218,17.435898155517577,134.72360007324218L26.025643155517578,165.74920007324218C26.923073155517578,168.8262000732422,29.615353155517578,170.8774000732422,32.82055315551758,170.8774000732422L117.69245315551758,171.3903000732422C120.89745315551758,171.3903000732422,123.71745315551757,169.21080007324218,124.48745315551758,166.1339000732422L133.07645315551758,134.08257007324218C133.20545315551757,133.44154007324218,133.3334531555176,132.80051007324218,133.3334531555176,132.15948007324218C133.3334531555176,128.31332007324218,130.12845315551758,125.10820007324219,126.28245315551757,125.10820007324219L24.10256315551758,125.7492450732422Z" fill="#F4849A" fill-opacity="1"/></g><g><path d="M117.69245135498046,174.59541103515625C117.56445135498046,174.59541103515625,117.56445135498046,174.59541103515625,117.69245135498046,174.59541103515625L32.692351354980474,174.08261103515625C28.07695135498047,174.08261103515625,24.10255135498047,171.00561103515625,22.820511354980468,166.51851103515625L14.230766354980469,135.49281103515625C12.692311354980468,129.98003103515626,15.897431354980469,124.33900103515624,21.410251354980467,122.92874103515625C22.30769135498047,122.67233303515626,23.20513135498047,122.54412803515625,24.10255135498047,122.54412803515625L126.15345135498048,122.03131103515625C128.84645135498047,122.03131103515625,131.41045135498047,123.05695103515625,133.33345135498047,124.98003103515624C135.25645135498047,126.90311103515626,136.41045135498047,129.46721103515625,136.41045135498047,132.15951103515624C136.41045135498047,133.05691103515625,136.28245135498048,133.95441103515626,136.02545135498048,134.85181103515626L127.43545135498047,166.90311103515626C126.28245135498047,171.51851103515625,122.30745135498047,174.59541103515625,117.69245135498046,174.59541103515625ZM24.23075135498047,128.95438103515625C23.84615135498047,128.95438103515625,23.589741354980468,128.95438103515625,23.20512135498047,129.08258103515624C21.153841354980468,129.59540103515624,19.99999135498047,131.77489103515626,20.512821354980467,133.82621103515626L29.10255135498047,164.85181103515626C29.61535135498047,166.51851103515625,31.025651354980468,167.67231103515624,32.820551354980466,167.67231103515624L117.69245135498046,168.18511103515624C119.48745135498046,168.18511103515624,120.89745135498048,167.03131103515625,121.41045135498047,165.36461103515626L130.00045135498047,133.31331103515626C130.12845135498048,132.92871103515625,130.12845135498048,132.67231103515624,130.12845135498048,132.28771103515624C130.12845135498048,131.26207103515625,129.74345135498046,130.23642103515624,128.9744513549805,129.59540103515624C128.20545135498048,128.95438103515625,127.30745135498047,128.44156103515624,126.28245135498047,128.44156103515624L24.23075135498047,128.95438103515625Z" fill="#222222" fill-opacity="1"/></g><g><path d="M113.97437587890624,3.8261708950653075C117.17947587890626,5.236426895065308,118.71797587890626,8.954376895065309,117.30767587890625,12.287706895065307L94.10257587890625,66.77485689506531C92.69227587890624,69.9800568950653,88.97435587890625,71.51845689506531,85.64102587890625,70.10825689506531C82.43588987890625,68.6979568950653,80.89743087890625,64.9800568950653,82.30768587890626,61.646656895065306L105.51277587890625,7.159506895065308C106.92307587890625,3.954375895065308,110.64097587890625,2.415913895065308,113.97437587890624,3.8261708950653075Z" fill="#FFFFFF" fill-opacity="1"/></g><g><path d="M88.20513595214844,73.8262C86.92307595214844,73.8262,85.64102595214844,73.5698,84.48718595214844,73.0569C79.61538595214844,71.0057,77.30769595214844,65.3646,79.35897795214844,60.4928L102.56412595214843,5.87745C104.61542595214844,1.00566,110.25642595214843,-1.30203,115.12822595214844,0.749248C120.00002595214843,2.80053,122.30772595214845,8.44156,120.25642595214845,13.3133L97.05132595214843,68.0569C95.51282595214843,71.6467,91.92312595214844,73.8262,88.20513595214844,73.8262ZM111.41022595214844,6.51848C110.12822595214844,6.51848,108.97432595214843,7.28771,108.46152595214843,8.44156L85.25640595214844,62.9287C84.61537595214844,64.5954,85.38461595214844,66.3903,86.92307595214844,67.1595C88.58973595214843,67.8005,90.38462595214844,67.0313,91.15382595214844,65.4928L114.35902595214844,10.8775C114.74362595214843,10.1082,114.74362595214843,9.21079,114.35902595214844,8.44156C113.97432595214843,7.67232,113.46152595214843,7.0313,112.69232595214844,6.77489C112.30772595214845,6.51848,111.79492595214845,6.51848,111.41022595214844,6.51848Z" fill="#282828" fill-opacity="1"/></g><g><path d="M32.69229782714844,43.56976318359375L117.30769782714843,43.56976318359375C122.94889782714844,43.56976318359375,127.56389782714844,48.18514318359375,127.56389782714844,53.82616318359375L127.56389782714844,64.08256318359375C127.56389782714844,69.72356318359375,122.94889782714844,74.33896318359375,117.30769782714843,74.33896318359375L32.69229782714844,74.33896318359375C27.05127782714844,74.33896318359375,22.435897827148438,69.72356318359375,22.435897827148438,64.08256318359375L22.435897827148438,53.82616318359375C22.435897827148438,48.18515318359375,27.05127782714844,43.56976699829375,32.69229782714844,43.56976318359375Z" fill="#B68775" fill-opacity="1"/></g><g><path d="M117.30767011108398,77.54413165283202L32.692270111083985,77.54413165283202C25.256410111083984,77.54413165283202,19.230770111083984,71.51843165283204,19.230770111083984,64.08253165283203L19.230770111083984,53.82613165283203C19.230770111083984,46.390271652832034,25.256410111083984,40.36463165283203,32.692270111083985,40.36463165283203L117.30767011108398,40.36463165283203C124.74377011108399,40.36463165283203,130.768770111084,46.390271652832034,130.768770111084,53.82613165283203L130.768770111084,64.08253165283203C130.768770111084,71.51843165283204,124.74377011108399,77.54413165283202,117.30767011108398,77.54413165283202ZM32.692270111083985,46.77489165283203C28.846150111083986,46.77489165283203,25.641030111083985,49.98002165283203,25.641030111083985,53.82613165283203L25.641030111083985,64.08253165283203C25.641030111083985,67.92873165283203,28.846150111083986,71.13383165283203,32.692270111083985,71.13383165283203L117.30767011108398,71.13383165283203C121.15377011108399,71.13383165283203,124.35877011108398,67.92873165283203,124.35877011108398,64.08253165283203L124.35877011108398,53.82613165283203C124.35877011108398,49.98002165283203,121.15377011108399,46.77489165283203,117.30767011108398,46.77489165283203L32.692270111083985,46.77489165283203Z" fill="#222222" fill-opacity="1"/></g><g><path d="M13.461521994018554,57.672325134277344L136.53812199401855,57.672325134277344C142.17912199401854,57.672325134277344,146.79512199401856,62.287705134277346,146.79512199401856,67.92872513427734L146.79512199401856,80.74922513427734C146.79512199401856,86.39032513427735,142.17912199401854,91.00562513427735,136.53812199401855,91.00562513427735L13.461521994018554,91.00562513427735C7.820511994018554,91.00562513427735,3.2051219940185547,86.39022513427734,3.2051219940185547,80.74922513427734L3.2051219940185547,67.92872513427734C3.2051219940185547,62.28771513427734,7.820511994018554,57.672328948977345,13.461521994018554,57.672325134277344Z" fill="#B68775" fill-opacity="1"/></g><g><path d="M136.538,94.21079360351563L13.4615,94.21079360351563C6.02564,94.21079360351563,0,88.18509360351563,0,80.74929360351562L0,67.92869360351563C0,60.49283360351563,6.02564,54.467193603515625,13.4615,54.467193603515625L136.538,54.467193603515625C143.974,54.467193603515625,150,60.49283360351563,150,67.92869360351563L150,80.74929360351562C150,88.18509360351563,143.974,94.21079360351563,136.538,94.21079360351563ZM13.4615,60.877453603515626C9.61539,60.877453603515626,6.41027,64.08258360351563,6.41027,67.92869360351563L6.41027,80.74929360351562C6.41027,84.59539360351562,9.61539,87.80049360351563,13.4615,87.80049360351563L136.538,87.80049360351563C140.385,87.80049360351563,143.59,84.59539360351562,143.59,80.74929360351562L143.59,67.92869360351563C143.59,64.08258360351563,140.385,60.877453603515626,136.538,60.877453603515626L13.4615,60.877453603515626Z" fill="#222222" fill-opacity="1"/></g><g><path d="M14.358973592529297,82.1595240234375C12.820513592529297,82.1595240234375,11.410255592529296,81.0056240234375,11.153846592529296,79.3390240234375C10.512821592529297,73.5697540234375,11.153846592529296,69.8518040234375,13.076923592529297,67.5441140234375C14.358973592529297,66.1338580234375,16.1538435925293,65.3646240234375,18.076923592529297,65.3646240234375L31.666663592529297,65.3646240234375C33.4615635925293,65.3646240234375,34.8717635925293,66.7748840234375,34.8717635925293,68.5697540234375C34.8717635925293,70.3646340234375,33.4615635925293,71.7748840234375,31.666663592529297,71.7748840234375L17.948723592529298,71.7748840234375Q16.9230735925293,72.8005340234375,17.564103592529296,78.4415240234375C17.820513592529295,80.23642402343751,16.538463592529297,81.7749240234375,14.743593592529297,82.03132402343749C14.615383592529296,82.1595240234375,14.487183592529297,82.1595240234375,14.358973592529297,82.1595240234375Z" fill="#2B2B2B" fill-opacity="1"/></g><g><path d="M44.871796407470704,67.9287399243164Q44.871796407470704,68.0861999243164,44.8563664074707,68.2428999243164Q44.840926407470704,68.3995899243164,44.8102064074707,68.55402992431641Q44.7794864074707,68.7084599243164,44.7337864074707,68.85913992431641Q44.6880764074707,69.0098099243164,44.6278164074707,69.1552899243164Q44.5675664074707,69.30075992431641,44.4933364074707,69.4396199243164Q44.4191164074707,69.5784899243164,44.331636407470704,69.7094099243164Q44.244156407470705,69.8403299243164,44.1442664074707,69.9620499243164Q44.0443764074707,70.0837699243164,43.9330364074707,70.19509992431641Q43.821696407470704,70.30643992431641,43.6999764074707,70.40632992431641Q43.578256407470704,70.50621992431641,43.4473364074707,70.59369992431641Q43.316416407470705,70.68117992431641,43.1775564074707,70.75540992431641Q43.038686407470706,70.82962992431641,42.8932164074707,70.8898899243164Q42.7477464074707,70.9501499243164,42.597066407470706,70.9958499243164Q42.446386407470705,71.0415599243164,42.29195640747071,71.0722799243164Q42.1375264074707,71.1029999243164,41.9808264074707,71.1184299243164Q41.8241264074707,71.1338699243164,41.6666664074707,71.1338699243164Q41.5092064074707,71.1338699243164,41.352506407470706,71.1184299243164Q41.195806407470705,71.1029999243164,41.0413764074707,71.0722799243164Q40.8869464074707,71.0415599243164,40.7362664074707,70.9958499243164Q40.5855864074707,70.9501499243164,40.440116407470704,70.8898899243164Q40.2946464074707,70.82962992431641,40.155776407470704,70.75540992431641Q40.0169164074707,70.68117992431641,39.8859864074707,70.59369992431641Q39.7550664074707,70.50621992431641,39.6333564074707,70.40632992431641Q39.511636407470704,70.30643992431641,39.4002974074707,70.19509992431641Q39.288957407470704,70.0837699243164,39.1890674074707,69.9620499243164Q39.0891774074707,69.8403299243164,39.001698407470705,69.7094099243164Q38.9142194074707,69.5784899243164,38.839994407470705,69.4396199243164Q38.7657694074707,69.30075992431641,38.70551240747071,69.1552899243164Q38.64525540747071,69.0098099243164,38.59954840747071,68.85913992431641Q38.553840607470704,68.7084599243164,38.523122107470705,68.55402992431641Q38.492403507470705,68.3995899243164,38.476970007470705,68.2428999243164Q38.4615364074707,68.0861999243164,38.4615364074707,67.9287399243164Q38.4615364074707,67.7712799243164,38.476970007470705,67.6145799243164Q38.492403507470705,67.4578799243164,38.523122107470705,67.30344992431641Q38.553840607470704,67.1490199243164,38.59954840747071,66.99833992431641Q38.64525540747071,66.8476599243164,38.70551240747071,66.7021899243164Q38.7657694074707,66.55671992431641,38.839994407470705,66.4178499243164Q38.9142194074707,66.2789899243164,39.001698407470705,66.1480599243164Q39.0891774074707,66.01713992431641,39.1890674074707,65.8954299243164Q39.288957407470704,65.7737099243164,39.4002974074707,65.66236992431641Q39.511636407470704,65.55103092431641,39.6333564074707,65.45113992431641Q39.7550664074707,65.3512499243164,39.8859864074707,65.2637709243164Q40.0169164074707,65.1762919243164,40.155776407470704,65.1020669243164Q40.2946464074707,65.0278419243164,40.440116407470704,64.96758592431641Q40.5855864074707,64.9073289243164,40.7362664074707,64.86162192431641Q40.8869464074707,64.81591402431641,41.0413764074707,64.7851955243164Q41.195806407470705,64.7544770243164,41.352506407470706,64.7390435243164Q41.5092064074707,64.7236099243164,41.6666664074707,64.7236099243164Q41.8241264074707,64.7236099243164,41.9808264074707,64.7390435243164Q42.1375264074707,64.7544770243164,42.29195640747071,64.7851955243164Q42.446386407470705,64.81591402431641,42.597066407470706,64.86162192431641Q42.7477464074707,64.9073289243164,42.8932164074707,64.96758592431641Q43.038686407470706,65.0278419243164,43.1775564074707,65.1020669243164Q43.316416407470705,65.1762919243164,43.4473364074707,65.2637709243164Q43.578256407470704,65.3512499243164,43.6999764074707,65.45113992431641Q43.821696407470704,65.55103092431641,43.9330364074707,65.66236992431641Q44.0443764074707,65.7737099243164,44.1442664074707,65.8954299243164Q44.244156407470705,66.01713992431641,44.331636407470704,66.1480599243164Q44.4191164074707,66.2789899243164,44.4933364074707,66.4178499243164Q44.5675664074707,66.55671992431641,44.6278164074707,66.7021899243164Q44.6880764074707,66.8476599243164,44.7337864074707,66.99833992431641Q44.7794864074707,67.1490199243164,44.8102064074707,67.30344992431641Q44.840926407470704,67.4578799243164,44.8563664074707,67.6145799243164Q44.871796407470704,67.7712799243164,44.871796407470704,67.9287399243164Z" fill="#2C2C2C" fill-opacity="1"/></g></g></svg>