<svg width="32" height="32" viewBox="0 0 32 32" fill="none" xmlns="http://www.w3.org/2000/svg">
<g filter="url(#filter0_ii_192_267)">
<path d="M7.07774 26.9085L10.8011 23.6141L20.7895 22.3795L25.9348 26.9588C26.2351 27.2261 26.4271 27.5941 26.4745 27.9933C26.5906 28.9714 25.8266 29.8315 24.8416 29.8315H8.18523C7.26219 29.8315 6.51392 29.0832 6.51392 28.1602C6.51392 27.6814 6.7192 27.2257 7.07774 26.9085Z" fill="url(#paint0_linear_192_267)"/>
<path d="M7.07774 26.9085L10.8011 23.6141L20.7895 22.3795L25.9348 26.9588C26.2351 27.2261 26.4271 27.5941 26.4745 27.9933C26.5906 28.9714 25.8266 29.8315 24.8416 29.8315H8.18523C7.26219 29.8315 6.51392 29.0832 6.51392 28.1602C6.51392 27.6814 6.7192 27.2257 7.07774 26.9085Z" fill="url(#paint1_linear_192_267)"/>
<path d="M7.07774 26.9085L10.8011 23.6141L20.7895 22.3795L25.9348 26.9588C26.2351 27.2261 26.4271 27.5941 26.4745 27.9933C26.5906 28.9714 25.8266 29.8315 24.8416 29.8315H8.18523C7.26219 29.8315 6.51392 29.0832 6.51392 28.1602C6.51392 27.6814 6.7192 27.2257 7.07774 26.9085Z" fill="url(#paint2_radial_192_267)"/>
</g>
<path d="M7.07774 26.9085L10.8011 23.6141L20.7895 22.3795L25.9348 26.9588C26.2351 27.2261 26.4271 27.5941 26.4745 27.9933C26.5906 28.9714 25.8266 29.8315 24.8416 29.8315H8.18523C7.26219 29.8315 6.51392 29.0832 6.51392 28.1602C6.51392 27.6814 6.7192 27.2257 7.07774 26.9085Z" fill="url(#paint3_linear_192_267)"/>
<g filter="url(#filter1_ii_192_267)">
<path d="M16.5001 26.8703C22.0153 26.8703 26.4862 22.3994 26.4862 16.8842C26.4862 11.369 22.0153 6.89801 16.5001 6.89801C10.9849 6.89801 6.51392 11.369 6.51392 16.8842C6.51392 22.3994 10.9849 26.8703 16.5001 26.8703Z" fill="url(#paint4_radial_192_267)"/>
<path d="M16.5001 26.8703C22.0153 26.8703 26.4862 22.3994 26.4862 16.8842C26.4862 11.369 22.0153 6.89801 16.5001 6.89801C10.9849 6.89801 6.51392 11.369 6.51392 16.8842C6.51392 22.3994 10.9849 26.8703 16.5001 26.8703Z" fill="url(#paint5_radial_192_267)"/>
</g>
<g filter="url(#filter2_i_192_267)">
<path d="M16.5001 23.7226C20.3253 23.7226 23.4263 20.6216 23.4263 16.7964C23.4263 12.9712 20.3253 9.87018 16.5001 9.87018C12.6748 9.87018 9.57385 12.9712 9.57385 16.7964C9.57385 20.6216 12.6748 23.7226 16.5001 23.7226Z" fill="url(#paint6_linear_192_267)"/>
<path d="M16.5001 23.7226C20.3253 23.7226 23.4263 20.6216 23.4263 16.7964C23.4263 12.9712 20.3253 9.87018 16.5001 9.87018C12.6748 9.87018 9.57385 12.9712 9.57385 16.7964C9.57385 20.6216 12.6748 23.7226 16.5001 23.7226Z" fill="url(#paint7_radial_192_267)"/>
</g>
<path d="M16.5001 23.7226C20.3253 23.7226 23.4263 20.6216 23.4263 16.7964C23.4263 12.9712 20.3253 9.87018 16.5001 9.87018C12.6748 9.87018 9.57385 12.9712 9.57385 16.7964C9.57385 20.6216 12.6748 23.7226 16.5001 23.7226Z" fill="url(#paint8_radial_192_267)"/>
<g filter="url(#filter3_f_192_267)">
<path fill-rule="evenodd" clip-rule="evenodd" d="M16.881 13.3338C16.881 12.7818 16.4336 12.3343 15.8816 12.3343C15.3296 12.3343 14.8821 12.7818 14.8821 13.3338V17.3304C14.8821 17.6678 15.0493 17.9662 15.3054 18.1472L17.2498 20.0382C17.6477 20.4204 18.2802 20.4077 18.6625 20.0098C19.0448 19.6118 19.0321 18.9793 18.6341 18.597L16.881 16.8921V13.3338Z" fill="url(#paint9_linear_192_267)"/>
</g>
<path d="M6.30578 2.80387C4.31186 4.215 3.53751 6.81393 4.27314 9.09814C4.50544 9.80878 5.31851 10.093 5.91862 9.67678L12.5198 5.017C13.1103 4.60077 13.1684 3.69726 12.6263 3.19981C10.8937 1.62625 8.2997 1.39274 6.30578 2.80387Z" fill="url(#paint10_radial_192_267)"/>
<path d="M6.30578 2.80387C4.31186 4.215 3.53751 6.81393 4.27314 9.09814C4.50544 9.80878 5.31851 10.093 5.91862 9.67678L12.5198 5.017C13.1103 4.60077 13.1684 3.69726 12.6263 3.19981C10.8937 1.62625 8.2997 1.39274 6.30578 2.80387Z" fill="url(#paint11_linear_192_267)"/>
<path d="M26.6942 2.80387C28.6882 4.215 29.4625 6.81393 28.7269 9.09814C28.4946 9.80878 27.6815 10.093 27.0814 9.67678L20.4802 5.017C19.8897 4.60077 19.8316 3.69726 20.3737 3.19981C22.1063 1.62625 24.7003 1.39274 26.6942 2.80387Z" fill="url(#paint12_radial_192_267)"/>
<path d="M26.6942 2.80387C28.6882 4.215 29.4625 6.81393 28.7269 9.09814C28.4946 9.80878 27.6815 10.093 27.0814 9.67678L20.4802 5.017C19.8897 4.60077 19.8316 3.69726 20.3737 3.19981C22.1063 1.62625 24.7003 1.39274 26.6942 2.80387Z" fill="url(#paint13_linear_192_267)"/>
<path fill-rule="evenodd" clip-rule="evenodd" d="M15.8086 16.1887C16.1909 15.7907 16.8234 15.778 17.2213 16.1603L19.2526 18.1358C19.6505 18.518 19.6633 19.1505 19.281 19.5485C18.8987 19.9465 18.2662 19.9592 17.8682 19.5769L15.837 17.6014C15.439 17.2191 15.4263 16.5866 15.8086 16.1887Z" fill="url(#paint14_linear_192_267)"/>
<path fill-rule="evenodd" clip-rule="evenodd" d="M16.5 11.8729C17.052 11.8729 17.4995 12.3204 17.4995 12.8724V16.869C17.4995 17.421 17.052 17.8684 16.5 17.8684C15.948 17.8684 15.5005 17.421 15.5005 16.869V12.8724C15.5005 12.3204 15.948 11.8729 16.5 11.8729Z" fill="url(#paint15_linear_192_267)"/>
<path fill-rule="evenodd" clip-rule="evenodd" d="M16.5 11.8729C17.052 11.8729 17.4995 12.3204 17.4995 12.8724V16.869C17.4995 17.421 17.052 17.8684 16.5 17.8684C15.948 17.8684 15.5005 17.421 15.5005 16.869V12.8724C15.5005 12.3204 15.948 11.8729 16.5 11.8729Z" fill="url(#paint16_radial_192_267)"/>
<defs>
<filter id="filter0_ii_192_267" x="6.01392" y="22.3795" width="20.9723" height="7.95201" filterUnits="userSpaceOnUse" color-interpolation-filters="sRGB">
<feFlood flood-opacity="0" result="BackgroundImageFix"/>
<feBlend mode="normal" in="SourceGraphic" in2="BackgroundImageFix" result="shape"/>
<feColorMatrix in="SourceAlpha" type="matrix" values="0 0 0 0 0 0 0 0 0 0 0 0 0 0 0 0 0 0 127 0" result="hardAlpha"/>
<feOffset dx="-0.5" dy="0.5"/>
<feGaussianBlur stdDeviation="0.5"/>
<feComposite in2="hardAlpha" operator="arithmetic" k2="-1" k3="1"/>
<feColorMatrix type="matrix" values="0 0 0 0 0.980392 0 0 0 0 0.945098 0 0 0 0 1 0 0 0 1 0"/>
<feBlend mode="normal" in2="shape" result="effect1_innerShadow_192_267"/>
<feColorMatrix in="SourceAlpha" type="matrix" values="0 0 0 0 0 0 0 0 0 0 0 0 0 0 0 0 0 0 127 0" result="hardAlpha"/>
<feOffset dx="0.5" dy="0.5"/>
<feGaussianBlur stdDeviation="0.5"/>
<feComposite in2="hardAlpha" operator="arithmetic" k2="-1" k3="1"/>
<feColorMatrix type="matrix" values="0 0 0 0 0.576471 0 0 0 0 0.533333 0 0 0 0 0.584314 0 0 0 1 0"/>
<feBlend mode="normal" in2="effect1_innerShadow_192_267" result="effect2_innerShadow_192_267"/>
</filter>
<filter id="filter1_ii_192_267" x="6.21392" y="6.89801" width="20.6723" height="19.9723" filterUnits="userSpaceOnUse" color-interpolation-filters="sRGB">
<feFlood flood-opacity="0" result="BackgroundImageFix"/>
<feBlend mode="normal" in="SourceGraphic" in2="BackgroundImageFix" result="shape"/>
<feColorMatrix in="SourceAlpha" type="matrix" values="0 0 0 0 0 0 0 0 0 0 0 0 0 0 0 0 0 0 127 0" result="hardAlpha"/>
<feOffset dx="0.4"/>
<feGaussianBlur stdDeviation="0.4"/>
<feComposite in2="hardAlpha" operator="arithmetic" k2="-1" k3="1"/>
<feColorMatrix type="matrix" values="0 0 0 0 0.682353 0 0 0 0 0.25098 0 0 0 0 0.262745 0 0 0 1 0"/>
<feBlend mode="normal" in2="shape" result="effect1_innerShadow_192_267"/>
<feColorMatrix in="SourceAlpha" type="matrix" values="0 0 0 0 0 0 0 0 0 0 0 0 0 0 0 0 0 0 127 0" result="hardAlpha"/>
<feOffset dx="-0.3"/>
<feGaussianBlur stdDeviation="0.3"/>
<feComposite in2="hardAlpha" operator="arithmetic" k2="-1" k3="1"/>
<feColorMatrix type="matrix" values="0 0 0 0 1 0 0 0 0 0.309804 0 0 0 0 0.588235 0 0 0 1 0"/>
<feBlend mode="normal" in2="effect1_innerShadow_192_267" result="effect2_innerShadow_192_267"/>
</filter>
<filter id="filter2_i_192_267" x="9.07385" y="9.87018" width="14.3524" height="14.3524" filterUnits="userSpaceOnUse" color-interpolation-filters="sRGB">
<feFlood flood-opacity="0" result="BackgroundImageFix"/>
<feBlend mode="normal" in="SourceGraphic" in2="BackgroundImageFix" result="shape"/>
<feColorMatrix in="SourceAlpha" type="matrix" values="0 0 0 0 0 0 0 0 0 0 0 0 0 0 0 0 0 0 127 0" result="hardAlpha"/>
<feOffset dx="-0.5" dy="0.5"/>
<feGaussianBlur stdDeviation="0.5"/>
<feComposite in2="hardAlpha" operator="arithmetic" k2="-1" k3="1"/>
<feColorMatrix type="matrix" values="0 0 0 0 0.866667 0 0 0 0 0.631373 0 0 0 0 0.776471 0 0 0 1 0"/>
<feBlend mode="normal" in2="shape" result="effect1_innerShadow_192_267"/>
</filter>
<filter id="filter3_f_192_267" x="14.1321" y="11.5843" width="5.55896" height="9.48247" filterUnits="userSpaceOnUse" color-interpolation-filters="sRGB">
<feFlood flood-opacity="0" result="BackgroundImageFix"/>
<feBlend mode="normal" in="SourceGraphic" in2="BackgroundImageFix" result="shape"/>
<feGaussianBlur stdDeviation="0.375" result="effect1_foregroundBlur_192_267"/>
</filter>
<linearGradient id="paint0_linear_192_267" x1="8.0242" y1="28.1718" x2="25.249" y2="28.1718" gradientUnits="userSpaceOnUse">
<stop stop-color="#D4BDE5"/>
<stop offset="1" stop-color="#E5CAF2"/>
</linearGradient>
<linearGradient id="paint1_linear_192_267" x1="17.073" y1="30.2538" x2="17.073" y2="28.7092" gradientUnits="userSpaceOnUse">
<stop stop-color="#D4A6F6"/>
<stop offset="1" stop-color="#D4A6F6" stop-opacity="0"/>
</linearGradient>
<radialGradient id="paint2_radial_192_267" cx="0" cy="0" r="1" gradientUnits="userSpaceOnUse" gradientTransform="translate(14.5028 22.3795) rotate(104.908) scale(5.09461 7.6923)">
<stop offset="0.654006" stop-color="#BE87BE"/>
<stop offset="1" stop-color="#BE87BE" stop-opacity="0"/>
</radialGradient>
<linearGradient id="paint3_linear_192_267" x1="24.3438" y1="25.0728" x2="23.5626" y2="25.9165" gradientUnits="userSpaceOnUse">
<stop stop-color="#F3E5F1"/>
<stop offset="1" stop-color="#F3E5F1" stop-opacity="0"/>
</linearGradient>
<radialGradient id="paint4_radial_192_267" cx="0" cy="0" r="1" gradientUnits="userSpaceOnUse" gradientTransform="translate(21.9376 9.55734) rotate(120.726) scale(18.104)">
<stop stop-color="#FF4995"/>
<stop offset="1" stop-color="#FF435C"/>
</radialGradient>
<radialGradient id="paint5_radial_192_267" cx="0" cy="0" r="1" gradientUnits="userSpaceOnUse" gradientTransform="translate(16.5001 16.8842) rotate(90) scale(7.82942)">
<stop offset="0.848448" stop-color="#D2355C"/>
<stop offset="1" stop-color="#D2355C" stop-opacity="0"/>
</radialGradient>
<linearGradient id="paint6_linear_192_267" x1="11.2501" y1="12.1197" x2="20.3126" y2="23.1822" gradientUnits="userSpaceOnUse">
<stop stop-color="#FFECFF"/>
<stop offset="1" stop-color="#DDC8E2"/>
</linearGradient>
<radialGradient id="paint7_radial_192_267" cx="0" cy="0" r="1" gradientUnits="userSpaceOnUse" gradientTransform="translate(16.5001 10.6197) rotate(90) scale(13.75)">
<stop offset="0.718182" stop-color="#B89A9F" stop-opacity="0"/>
<stop offset="1" stop-color="#B89A9F"/>
</radialGradient>
<radialGradient id="paint8_radial_192_267" cx="0" cy="0" r="1" gradientUnits="userSpaceOnUse" gradientTransform="translate(14.3751 15.1197) rotate(32.6073) scale(10.0904 8.90964)">
<stop offset="0.887109" stop-color="#B394A7" stop-opacity="0"/>
<stop offset="0.977057" stop-color="#B394A7"/>
</radialGradient>
<linearGradient id="paint9_linear_192_267" x1="16.9116" y1="12.3343" x2="16.9116" y2="20.3168" gradientUnits="userSpaceOnUse">
<stop stop-color="#C4AFCA"/>
<stop offset="1" stop-color="#CFA5CF"/>
</linearGradient>
<radialGradient id="paint10_radial_192_267" cx="0" cy="0" r="1" gradientUnits="userSpaceOnUse" gradientTransform="translate(12.6875 4.93219) rotate(-169.408) scale(7.82074 8.79834)">
<stop stop-color="#FFDC56"/>
<stop offset="0.593115" stop-color="#FFB02E"/>
<stop offset="1" stop-color="#BF8942"/>
</radialGradient>
<linearGradient id="paint11_linear_192_267" x1="10.2193" y1="6.69521" x2="9.8888" y2="6.26242" gradientUnits="userSpaceOnUse">
<stop stop-color="#F88F6D"/>
<stop offset="1" stop-color="#F88F6D" stop-opacity="0"/>
</linearGradient>
<radialGradient id="paint12_radial_192_267" cx="0" cy="0" r="1" gradientUnits="userSpaceOnUse" gradientTransform="translate(28.6875 4.93219) rotate(-173.953) scale(8.73611 15.1601)">
<stop stop-color="#FFFF63"/>
<stop offset="0.7359" stop-color="#F1AE2C"/>
<stop offset="1" stop-color="#C48039"/>
</radialGradient>
<linearGradient id="paint13_linear_192_267" x1="24.5" y1="7.97785" x2="24.9027" y2="7.41128" gradientUnits="userSpaceOnUse">
<stop stop-color="#E76D2F"/>
<stop offset="1" stop-color="#E76D2F" stop-opacity="0"/>
</linearGradient>
<linearGradient id="paint14_linear_192_267" x1="18.062" y1="17.6429" x2="17.7253" y2="19.7528" gradientUnits="userSpaceOnUse">
<stop stop-color="#FF4F5C"/>
<stop offset="1" stop-color="#F0368B"/>
</linearGradient>
<linearGradient id="paint15_linear_192_267" x1="16.0642" y1="14.433" x2="17.9272" y2="14.433" gradientUnits="userSpaceOnUse">
<stop stop-color="#3A234F"/>
<stop offset="1" stop-color="#3A323B"/>
</linearGradient>
<radialGradient id="paint16_radial_192_267" cx="0" cy="0" r="1" gradientUnits="userSpaceOnUse" gradientTransform="translate(17.0069 12.2782) rotate(114.747) scale(1.21106 1.15474)">
<stop stop-color="#463C4B"/>
<stop offset="1" stop-color="#463C4B" stop-opacity="0"/>
</radialGradient>
</defs>
</svg>
