<svg xmlns="http://www.w3.org/2000/svg" xmlns:xlink="http://www.w3.org/1999/xlink" fill="none" version="1.1" width="199.984375" height="199.7762451171875" viewBox="0 0 199.984375 199.7762451171875"><g><g><path d="M31.39290251648426,50.09568023681914L168.60040251648425,50.09568023681914C189.38940251648427,50.09568023681914,199.78340251648427,60.49017642211914,199.78340251648427,81.27917642211914L199.78340251648427,168.59267642211915C199.78340251648427,189.38167642211914,189.38940251648427,199.77667642211915,168.60040251648425,199.77667642211915L31.39290251648426,199.77667642211915C10.603902516484261,199.77667642211915,0.20940251648426056,189.38167642211914,0.20940251648426056,168.59267642211915L0.20940251648426056,81.27917642211914C0.20940251648426056,60.49017642211914,10.603902516484261,50.09567642211914,31.39290251648426,50.09568023681914Z" fill="#C2E2FF" fill-opacity="1"/></g><g><path d="M0.209399,0.202151L177.955,0.202151C190.691,-1.62625,201.612,9.29421,199.784,22.0306C199.989,23.5072,200.028,25.0023,199.9,26.4877C199.571,30.2301,198.148,33.7931,195.809,36.7325C194.646,38.1923,193.283,39.4801,191.759,40.5577C190.227,41.6217,188.553,42.4643,186.786,43.0607C183.944,44.005,180.921,44.2782,177.955,43.859L22.0378,43.859C16.7962,44.6167,11.4742,43.1787,7.32754,39.8841C2.55672,36.1208,-0.156173,30.325,0.00982542,24.2508C0.030744,23.5077,0.0946034,22.7664,0.201084,22.0306C-1.62872,9.29027,9.29822,-1.63251,22.0378,0.202151L0.209399,0.202151Z" fill="#116DFF" fill-opacity="1"/></g><g><path d="M22.037791072392462,6.438846530151367C13.423791072392463,6.4346365301513675,6.438481072392464,13.416546530151367,6.438481072392464,22.030546530151366C6.438481072392464,30.644646530151366,13.423791072392463,37.626546530151366,22.037791072392462,37.62234653015137L177.95539107239247,37.62234653015137C186.56939107239248,37.626546530151366,193.55439107239246,30.644646530151366,193.55439107239246,22.030546530151366C193.55439107239246,13.416546530151367,186.56939107239248,6.4346365301513675,177.95539107239247,6.438846530151367L22.037791072392462,6.438846530151367ZM22.037791072392462,0.20215129852136718L177.95539107239247,0.20215129852136718C189.17739107239245,0.1956232001513672,198.57139107239246,8.708346530151367,199.66739107239246,19.87684653015137C200.37439107239246,27.132146530151367,197.42139107239245,34.26314653015137,191.79239107239246,38.894546530151366C187.88739107239246,42.095246530151364,182.99539107239247,43.846346530151365,177.94639107239246,43.850646530151366L22.037791072392462,43.850646530151366C9.981761072392464,43.859846530151366,0.2047987723924637,34.08664653015137,0.20939946174246368,22.030546530151366C0.20020444239246368,9.971256530151367,9.978511072392463,0.1929509801513672,22.037791072392462,0.20215129852136718Z" fill="#192C55" fill-opacity="1"/></g><g><path d="M21.580461502075195,22.030570308532717C21.584621432075195,22.903670308532714,21.713426502075194,23.771680308532716,21.962978502075195,24.608380308532716C22.211202502075196,25.449580308532717,22.590021502075196,26.246480308532714,23.085581502075197,26.970080308532715C23.735211502075195,27.944680308532714,24.568421502075196,28.783580308532713,25.538681502075196,29.439780308532715C26.266871502075197,29.932480308532714,27.066081502075196,30.311080308532716,27.908621502075196,30.562380308532713C29.027241502075196,30.906580308532714,30.204191502075197,31.019780308532717,31.367911502075195,30.894980308532716C36.260261502075195,30.404580308532715,39.8360615020752,26.051980308532713,39.367461502075194,21.157440308532713C39.19556150207519,19.402860308532716,38.506861502075196,17.738780308532714,37.3883615020752,16.375970308532715C37.0094615020752,15.927450308532714,36.5920615020752,15.512870308532715,36.141061502075196,15.136950308532715C35.687861502075194,14.771380308532715,35.20366150207519,14.445850308532714,34.6941615020752,14.164030308532714C33.9242615020752,13.744517308532714,33.0938615020752,13.447154308532715,32.23276150207519,13.282573308532715C26.717741502075196,12.199313308532714,21.584976192075196,16.418520308532713,21.580461502075195,22.038890308532714L21.580461502075195,22.030570308532717ZM48.4730615020752,22.030570308532717C48.47766150207519,22.903640308532715,48.60646150207519,23.771580308532712,48.85556150207519,24.608380308532716C49.1041615020752,25.449380308532717,49.4829615020752,26.246280308532715,49.978161502075196,26.970080308532715C50.62786150207519,27.944680308532714,51.4610615020752,28.783580308532713,52.431261502075195,29.439780308532715C53.159661502075195,29.932180308532715,53.958861502075194,30.310680308532714,54.80126150207519,30.562380308532713C55.91986150207519,30.906580308532714,57.096761502075196,31.019780308532717,58.2605615020752,30.894980308532716C59.133561502075196,30.817180308532716,59.989261502075195,30.603980308532716,60.79676150207519,30.262980308532715C61.3403615020752,30.044880308532715,61.858961502075196,29.768880308532715,62.34346150207519,29.439780308532715C62.82396150207519,29.111180308532713,63.274761502075194,28.741080308532716,63.6905615020752,28.333780308532717C64.0979615020752,27.914980308532716,64.46806150207519,27.461480308532714,64.79656150207519,26.978380308532714C65.46046150207519,26.013680308532713,65.91386150207519,24.919980308532715,66.1270615020752,23.768480308532716C66.24966150207518,23.194780308532714,66.30546150207519,22.608810308532714,66.29336150207519,22.022250308532715C66.29076150207518,21.149630308532714,66.1648615020752,20.281760308532714,65.9191615020752,19.444420308532713C65.6713615020752,18.603130308532716,65.2924615020752,17.806150308532715,64.79656150207519,17.082790308532715C64.1466615020752,16.108390308532716,63.31346150207519,15.269600308532715,62.34346150207519,14.613060308532715C61.6147615020752,14.123260308532714,60.8155615020752,13.747507308532715,59.97356150207519,13.498775308532714C58.8555615020752,13.151262308532715,57.6785615020752,13.035254508532715,56.51426150207519,13.157836008532716C51.95446150207519,13.614381308532716,48.48016150207519,17.447980308532713,48.4730615020752,22.030570308532717ZM75.9311615020752,22.030570308532717C75.9237615020752,24.083880308532713,76.6457615020752,26.073080308532717,77.9684615020752,27.643580308532712C79.06026150207519,28.953480308532715,80.50236150207519,29.925480308532716,82.1262615020752,30.445980308532715C83.1005615020752,30.746080308532715,84.1175615020752,30.883680308532714,85.13646150207519,30.853380308532714C86.8364615020752,30.798680308532713,88.4836615020752,30.249680308532714,89.8763615020752,29.273480308532715C90.9906615020752,28.491180308532712,91.9143615020752,27.467980308532717,92.5789615020752,26.279880308532714C93.0831615020752,25.392880308532717,93.4187615020752,24.420180308532714,93.5685615020752,23.410980308532714C93.6769615020752,22.740420308532713,93.71046150207519,22.059900308532715,93.6682615020752,21.381950308532716C93.6100615020752,20.705950308532714,93.4846615020752,20.037410308532714,93.2940615020752,19.386210308532714C93.01526150207519,18.406920308532715,92.55246150207519,17.489720308532714,91.9303615020752,16.683650308532716C91.10606150207519,15.604920308532716,90.05596150207519,14.719430308532715,88.8535615020752,14.089183308532714C88.2525615020752,13.775529308532715,87.6160615020752,13.535418308532714,86.9576615020752,13.374043308532714C85.96776150207519,13.134102808532715,84.94466150207519,13.061030408532714,83.9307615020752,13.157837908532715C82.9169615020752,13.253133308532714,81.9284615020752,13.529128308532714,81.0119615020752,13.972766308532714C80.09396150207519,14.411890308532715,79.2562615020752,15.002210308532714,78.53396150207519,15.719040308532715C76.8700615020752,17.398060308532713,75.9374615020752,19.666780308532715,75.9394615020752,22.030570308532717L75.9311615020752,22.030570308532717Z" fill="#FFFFFF" fill-opacity="1"/></g><g><path d="M157.9143253173828,145.10130639648438C157.07132531738282,145.07190639648437,156.25732531738282,144.78140639648439,155.5863253173828,144.26970639648437C154.91832531738282,143.75700639648437,154.43432531738281,143.04240639648438,154.2053253173828,142.23240639648438L148.4513253173828,122.10870639648438L141.7073253173828,142.39040639648437C140.8013253173828,144.94460639648437,137.68732531738283,145.9005063964844,135.5043253173828,144.29460639648437C134.8283253173828,143.78310639648438,134.3373253173828,143.0649063964844,134.10732531738282,142.2490063964844L124.86832531738281,109.81822639648438C124.49232531738281,108.54360639648438,124.79032531738281,107.16537639648438,125.65832531738282,106.15936639648437C125.99032531738281,105.75742639648438,126.40432531738281,105.43132739648438,126.87232531738282,105.20307139648438C129.09832531738283,104.06461339648438,131.80932531738281,105.24931339648438,132.48532531738283,107.65617639648437L138.24032531738283,127.77160639648437L144.9753253173828,107.49817639648438C145.5053253173828,105.83584639648437,147.07332531738282,104.72621939648438,148.81732531738282,104.77897639648438C149.6603253173828,104.80591539648438,150.4733253173828,105.09354439648438,151.1453253173828,105.60221639648438C151.82232531738282,106.11617639648438,152.3183253173828,106.83284639648437,152.55932531738281,107.64784639648437L158.2973253173828,127.76330639648438L165.04932531738282,107.49816639648438C165.7363253173828,105.42941239648438,167.97132531738282,104.31047839648437,170.0403253173828,104.99983939648438C172.10832531738282,105.68919639648438,173.2243253173828,107.92543639648437,172.5333253173828,109.99284639648438L161.7233253173828,142.4236063964844C161.32832531738282,143.61910639648437,160.3903253173828,144.55680639648438,159.1953253173828,144.95160639648438C158.80332531738281,145.07900639648437,158.39332531738282,145.14350639648438,157.9813253173828,145.1428063964844L157.9143253173828,145.10130639648438ZM105.91712531738281,145.10130639648438C104.17652531738281,145.0744063964844,102.65772531738281,143.9134063964844,102.17512531738281,142.24070639648437L96.47892531738282,122.11700639648437L89.70172531738281,142.39040639648437C89.43002531738281,143.19010639648437,88.90812531738281,143.88110639648437,88.21322531738281,144.36120639648436C87.17222531738281,145.09370639648438,85.8450253173828,145.28820639648438,84.63752531738281,144.8851063964844C83.83782531738281,144.6129063964844,83.15072531738281,144.0837063964844,82.68342531738281,143.3799063964844C82.44942531738282,143.03340639648437,82.27252531738282,142.65160639648437,82.15952531738282,142.2490063964844L72.89592531738282,109.81822639648438C72.4528253173828,108.03488639648438,73.30632531738281,106.18279639648438,74.94992531738282,105.36106839648437C75.8553253173828,104.87873839648438,76.91812531738282,104.78567539648438,77.89362531738281,105.10328639648438C78.37172531738281,105.26119239648438,78.81892531738282,105.50029639648437,79.21582531738281,105.81011639648437C79.80692531738282,106.29190639648438,80.2482253173828,106.93231639648438,80.48812531738281,107.65617639648437L86.24252531738281,127.77160639648437L92.99472531738282,107.49817639648438C93.26362531738282,106.69486639648437,93.77852531738282,105.99660639648438,94.4666253173828,105.50243639648437C95.15492531738282,105.01233639648437,95.98352531738281,104.75849939648438,96.82822531738282,104.77897639648438C98.11652531738281,104.78746039648438,99.31642531738281,105.43570739648437,100.02972531738281,106.50861639648437C100.26252531738281,106.85787639648437,100.44552531738282,107.24039639648437,100.56192531738282,107.64785639648437L106.28302531738281,127.76330639648438L113.05192531738281,107.49817639648438C113.30252531738282,106.75980639648438,113.76182531738282,106.10990639648438,114.3741253173828,105.62716639648437C114.78922531738282,105.31819139648438,115.25692531738281,105.08715039648438,115.75452531738281,104.94528939648437C116.25412531738282,104.81962539648437,116.77162531738281,104.78025839648437,117.28452531738282,104.82887239648437C118.5933253173828,104.98772439648438,119.73132531738281,105.80269639648438,120.30332531738281,106.99092639648437C120.53832531738281,107.45154639648437,120.67632531738282,107.95516639648437,120.71032531738281,108.47109639648437C120.75532531738281,108.98493639648437,120.69632531738282,109.50251639648438,120.53632531738282,109.99284639648438L109.72572531738281,142.4236063964844C109.33452531738281,143.61950639648438,108.39492531738281,144.55600639648438,107.19772531738282,144.9433063964844C106.80532531738281,145.07020639648437,106.39612531738281,145.13750639648438,105.9837253173828,145.1428063964844L105.91712531738281,145.10130639648438ZM50.55192531738281,145.10130639648438C48.81312531738281,145.06900639648438,47.29722531738281,143.91020639648437,46.80992531738281,142.24070639648437L41.08882531738281,122.11700639648437L34.31992531738281,142.38210639648437C33.59582531738281,144.46090639648438,31.335925317382813,145.57230639648438,29.247425317382813,144.87670639648437C28.444525317382812,144.60660639648438,27.752325317382812,144.08090639648438,27.276625317382813,143.3799063964844C27.038905317382813,143.03140639648439,26.859175317382814,142.64670639648438,26.744425317382813,142.24070639648437L17.49749231738281,109.80990639648438C17.05303231738281,108.02860639648438,17.902748317382812,106.17719639648438,19.543125317382813,105.35275239648438C20.446585317382812,104.86372339648437,21.512145317382814,104.77041639648438,22.486845317382812,105.09497039648437C22.96743531738281,105.25292939648438,23.41742531738281,105.49198639648438,23.817335317382813,105.80179639648438C24.407055317382813,106.28484639648437,24.848125317382813,106.92482639648438,25.08962531738281,107.64785639648437L30.844025317382812,127.76330639648438L37.59622531738282,107.48985639648437C38.017425317382816,106.27786639648437,38.98492531738282,105.33505239648437,40.20732531738281,104.94528939648437C41.01872531738282,104.70584139648437,41.88432531738282,104.72326639648438,42.68542531738281,104.99518539648437C43.47472531738281,105.28664439648438,44.15442531738282,105.81532639648438,44.631225317382814,106.50861639648437C44.87242531738281,106.85787639648437,45.04702531738281,107.23207639648437,45.16342531738282,107.63954639648438L50.95112531738281,127.76330639648438L57.70332531738281,107.49817639648438C57.970325317382816,106.42555639648438,58.66842531738281,105.51081639648437,59.63262531738281,104.97023739648438C60.11382531738281,104.70794639648437,60.64242531738281,104.54399869648438,61.18762531738281,104.48793029648438C62.29062531738281,104.38320919648437,63.386625317382816,104.74854239648438,64.20612531738281,105.49411639648437C65.24922531738281,106.42528639648438,65.71532531738282,107.84270639648437,65.42852531738282,109.21118639648438C65.37362531738282,109.47993639648438,65.29002531738281,109.74199639648438,65.17912531738281,109.99284639648438L54.368825317382814,142.4236063964844C54.10992531738281,143.20950639648436,53.60932531738281,143.89340639648438,52.93852531738281,144.37780639648437C52.266525317382815,144.86130639648437,51.46292531738281,145.12820639648436,50.635125317382816,145.1428063964844L50.55192531738281,145.10130639648438ZM174.74532531738282,139.19720639648438C174.74032531738283,138.59000639648437,174.88232531738282,137.99070639648437,175.16132531738282,137.45090639648438C175.4253253173828,136.90920639648436,175.81632531738282,136.43870639648438,176.3003253173828,136.07890639648437C177.03732531738282,135.54590639648438,177.9263253173828,135.26320639648438,178.8363253173828,135.27220639648436C179.74632531738283,135.31410639648436,180.6163253173828,135.65960639648438,181.3063253173828,136.25350639648437C182.48232531738282,137.27250639648437,182.94632531738282,138.88860639648436,182.4913253173828,140.37630639648438C182.03632531738282,141.86400639648437,180.7473253173828,142.94370639648437,179.20232531738282,143.13050639648438C178.60132531738282,143.20410639648438,177.99032531738283,143.14450639648436,177.4143253173828,142.95590639648438C175.80932531738281,142.41130639648438,174.73432531738283,140.90010639648438,174.74532531738282,139.20550639648437L174.74532531738282,139.19720639648438Z" fill="#28BF9A" fill-opacity="1"/></g></g></svg>