<svg xmlns="http://www.w3.org/2000/svg" xmlns:xlink="http://www.w3.org/1999/xlink" fill="none" version="1.1" width="280" height="280" viewBox="0 0 280 280"><g><g><rect x="0" y="0" width="280" height="280" rx="0" fill="#FE304B" fill-opacity="1"/></g><g><path d="M209.403,-8.32451e-15Q210.635,1.22457,211.837,2.47912Q213.038,3.73367,214.208,5.01743Q215.378,6.30119,216.516,7.61339Q217.654,8.92559,218.76,10.2654Q219.865,11.6053,220.937,12.9719Q222.01,14.3386,223.048,15.7313Q224.086,17.1239,225.089,18.5417Q226.093,19.9595,227.061,21.4016Q228.029,22.8437,228.962,24.3093Q229.894,25.7748,230.79,27.2628Q231.686,28.7509,232.546,30.2605Q233.405,31.7702,234.226,33.3006Q235.048,34.831,235.832,36.3811Q236.615,37.9313,237.361,39.5002Q238.106,41.0692,238.813,42.6561Q239.519,44.243,240.186,45.8468Q240.853,47.4506,241.481,49.0703Q242.108,50.69,242.695,52.3247Q243.283,53.9594,243.83,55.6081Q244.376,57.2568,244.883,58.9185Q245.389,60.5801,245.854,62.2537Q246.319,63.9273,246.742,65.6119Q247.166,67.2965,247.548,68.9909Q247.93,70.6854,248.27,72.3888Q248.61,74.0922,248.908,75.8034Q249.206,77.5147,249.462,79.2327Q249.718,80.9508,249.932,82.6747Q250.145,84.3985,250.316,86.1271Q250.487,87.8557,250.615,89.588Q250.743,91.3202,250.829,93.0551Q250.914,94.79,250.957,96.5265Q251,98.263,251,100Q251,103.461,250.83,106.919Q250.66,110.376,250.321,113.82Q249.982,117.265,249.474,120.689Q248.966,124.113,248.291,127.508Q247.615,130.903,246.774,134.26Q245.933,137.618,244.929,140.93Q243.924,144.242,242.758,147.501Q241.592,150.76,240.267,153.958Q238.942,157.156,237.462,160.285Q235.983,163.414,234.351,166.467Q232.719,169.52,230.94,172.488Q229.16,175.457,227.237,178.335Q225.314,181.213,223.252,183.994Q221.19,186.774,218.994,189.449Q216.799,192.125,214.474,194.69Q212.15,197.254,209.702,199.702Q207.254,202.15,204.69,204.474Q202.125,206.799,199.449,208.994Q196.774,211.19,193.994,213.252Q191.213,215.314,188.335,217.237Q185.457,219.16,182.488,220.94Q179.52,222.719,176.467,224.351Q173.414,225.983,170.285,227.462Q167.156,228.942,163.958,230.267Q160.76,231.592,157.501,232.758Q154.242,233.924,150.93,234.929Q147.618,235.933,144.26,236.774Q140.903,237.615,137.508,238.291Q134.113,238.966,130.689,239.474Q127.265,239.982,123.82,240.321Q120.376,240.66,116.919,240.83Q113.461,241,110,241Q108.028,241,106.057,240.945Q104.086,240.89,102.118,240.78Q100.149,240.669,98.1845,240.504Q96.2198,240.339,94.2604,240.119Q92.301,239.899,90.3486,239.624Q88.3961,239.349,86.4521,239.02Q84.5081,238.691,82.5741,238.307Q80.6401,237.923,78.7175,237.486Q76.795,237.049,74.8854,236.558Q72.9759,236.067,71.0808,235.522Q69.1857,234.978,67.3065,234.381Q65.4274,233.784,63.5657,233.135Q61.704,232.485,59.8612,231.784Q58.0184,231.083,56.1959,230.331Q54.3734,229.578,52.5726,228.775Q50.7719,227.972,48.9943,227.119Q47.2167,226.266,45.4637,225.364Q43.7106,224.461,41.9835,223.51Q40.2564,222.559,38.5565,221.56Q36.8567,220.561,35.1855,219.515Q33.5142,218.469,31.8729,217.376Q30.2315,216.284,28.6214,215.146Q27.0112,214.008,25.4335,212.825Q23.8558,211.643,22.3118,210.416Q20.7678,209.19,19.2586,207.921Q17.7495,206.652,16.2765,205.342Q14.8034,204.031,13.3676,202.68Q11.9317,201.329,10.5342,199.938Q9.13675,198.547,7.7787,197.117Q6.42064,195.688,5.10309,194.221Q3.78554,192.754,2.50952,191.251Q1.23349,189.748,-1.65992e-14,188.21L0,30Q0,29.2635,0.0361363,28.528Q0.0722726,27.7924,0.144458,27.0595Q0.216644,26.3266,0.324705,25.5981Q0.432766,24.8696,0.576441,24.1473Q0.720117,23.425,0.899062,22.7106Q1.07801,21.9962,1.29179,21.2915Q1.50557,20.5867,1.75368,19.8933Q2.00178,19.1999,2.28361,18.5195Q2.56544,17.8391,2.88032,17.1733Q3.1952,16.5076,3.54236,15.8581Q3.88953,15.2086,4.26814,14.5769Q4.64676,13.9452,5.05591,13.3329Q5.46507,12.7205,5.90377,12.129Q6.34248,11.5375,6.80969,10.9682Q7.27689,10.3989,7.77146,9.85323Q8.26604,9.30755,8.7868,8.7868Q9.30755,8.26604,9.85323,7.77146Q10.3989,7.27689,10.9682,6.80969Q11.5375,6.34248,12.129,5.90377Q12.7205,5.46507,13.3329,5.05591Q13.9452,4.64676,14.5769,4.26814Q15.2086,3.88953,15.8581,3.54236Q16.5076,3.1952,17.1733,2.88032Q17.8391,2.56544,18.5195,2.28361Q19.1999,2.00178,19.8933,1.75368Q20.5867,1.50557,21.2915,1.29179Q21.9962,1.07801,22.7106,0.899062Q23.425,0.720117,24.1473,0.576441Q24.8696,0.432766,25.5981,0.324705Q26.3266,0.216644,27.0595,0.144458Q27.7924,0.0722726,28.528,0.0361363Q29.2635,0,30,0L209.403,0L209.403,-8.32451e-15Z" fill-rule="evenodd" fill="#C72339" fill-opacity="1"/></g><g><path d="M123,20C81.5938,20,48,53.5938,48,95C48,131.094,73.625,161.406,107.6875,168.438L123.3125,195.469L138.9375,168.438C172.688,160.938,198,130.938,198,95C198,53.5938,164.406,20,123,20ZM129.25,145.156L116.75,145.156L116.75,132.656L129.25,132.656L129.25,145.156ZM142.2188,84.0625L136.5938,89.8438C132.2188,94.5312,129.25,98.4375,129.25,107.6562L129.25,120.156L116.75,120.156L116.75,104.6875C116.75,97.8125,119.5625,91.25,124.0938,86.7188L131.9062,78.75C134.25,76.5625,135.6562,73.4375,135.6562,69.8438C135.6562,62.9688,130.0312,57.3438,123.1562,57.3438C116.2812,57.3438,110.5,63.125,110.5,70L98,70C98,56.0938,109.25,44.8438,123.1562,44.8438C137.0625,44.8438,148.312,56.0938,148.312,70C148.156,75.4688,145.8125,80.625,142.2188,84.0625Z" fill="#FFFFFF" fill-opacity="1"/></g></g></svg>