<svg xmlns="http://www.w3.org/2000/svg" xmlns:xlink="http://www.w3.org/1999/xlink" fill="none" version="1.1" width="242.4366455078125" height="242.4365234375" viewBox="0 0 242.4366455078125 242.4365234375"><g transform="matrix(0.7071067690849304,0.7071067690849304,-0.7071067690849304,0.7071067690849304,35.50392200396891,-85.71428915160504)"><g><path d="M192.64693133697511,14.285611308288575L192.64693133697511,-0.00008869171142578125L121.2183313369751,-0.00008869171142578125L121.2183313369751,71.42851130828858L135.5040313369751,71.42851130828858L135.5040313369751,85.71421130828857L178.3612313369751,85.71421130828857L178.3612313369751,99.99991130828857L192.64693133697511,99.99991130828857L192.64693133697511,114.28591130828858L206.93263133697508,114.28591130828858L206.93263133697508,128.57091130828857L221.2183313369751,128.57091130828857L221.2183313369751,142.85691130828857L235.5043313369751,142.85691130828857L235.5043313369751,157.14291130828857L249.7893313369751,157.14291130828857L249.7893313369751,171.42891130828858L292.64733133697507,171.42891130828858L292.64733133697507,114.28591130828858L278.3613313369751,114.28591130828858L278.3613313369751,99.99991130828857L264.07533133697507,99.99991130828857L264.07533133697507,85.71421130828857L249.7893313369751,85.71421130828857L249.7893313369751,71.42851130828858L235.5043313369751,71.42851130828858L235.5043313369751,57.14281130828857L221.2183313369751,57.14281130828857L221.2183313369751,42.85701130828858L206.93263133697508,42.85701130828858L206.93263133697508,14.285611308288575L192.64693133697511,14.285611308288575Z" fill="#000000" fill-opacity="1"/></g><g><path d="M178.361250390625,14.28564453125L135.504150390625,14.28564453125L135.504150390625,57.14274453125L149.789850390625,57.14274453125L149.789850390625,71.42854453125L192.647050390625,71.42854453125L192.647050390625,85.71424453125L206.93275039062502,85.71424453125L206.93275039062502,99.99994453125L221.21845039062498,99.99994453125L221.21845039062498,114.28564453125L235.504150390625,114.28564453125L235.504150390625,128.57164453125L249.790150390625,128.57164453125L249.790150390625,142.85664453125L264.075150390625,142.85664453125L264.075150390625,157.14264453125L278.36115039062497,157.14264453125L278.36115039062497,128.57164453125L264.075150390625,128.57164453125L264.075150390625,114.28564453125L249.790150390625,114.28564453125L249.790150390625,99.99994453125L235.504150390625,99.99994453125L235.504150390625,85.71424453125L221.21845039062498,85.71424453125L221.21845039062498,71.42854453125L206.93275039062502,71.42854453125L206.93275039062502,57.14274453125L192.647050390625,57.14274453125L192.647050390625,28.57134453125L178.361250390625,28.57134453125L178.361250390625,14.28564453125Z" fill="#AB6E46" fill-opacity="1"/></g><g><path d="M178.361083984375,57.14276885986328L192.646783984375,57.14276885986328L192.646783984375,71.42846885986329L178.361083984375,71.42846885986329L178.361083984375,57.14276885986328Z" fill="#AB6E46" fill-opacity="1"/></g><g><path d="M164.0754737854004,14.285625457763672L178.36117378540038,14.285625457763672L178.36117378540038,28.57132545776367L164.0754737854004,28.57132545776367L164.0754737854004,14.285625457763672ZM192.6468737854004,28.57132545776367L178.36117378540038,28.57132545776367L178.36117378540038,57.142725457763675L192.6468737854004,57.142725457763675L192.6468737854004,28.57132545776367Z" fill="#E9BFAD" fill-opacity="1"/></g></g></svg>