<svg xmlns="http://www.w3.org/2000/svg" xmlns:xlink="http://www.w3.org/1999/xlink" fill="none" version="1.1" width="8" height="13" viewBox="0 0 8 13"><g><path d="M7.88037,6.84997C7.88951,6.83321,7.90432,6.81917,7.91232,6.80185C8.06918,6.49264,8.01782,6.11426,7.74007,5.86558C7.74007,5.86558,1.44373,0.221552,1.44373,0.221552C1.10036,-0.0860351,0.559097,-0.0714476,0.233967,0.253459C-0.0905799,0.578888,-0.0757397,1.09186,0.267633,1.4C0.267633,1.4,5.91718,6.46509,5.91718,6.46509C5.91718,6.46509,0.289862,11.6053,0.289862,11.6053C-0.0500766,11.9161,-0.0603479,12.4291,0.267633,12.7519C0.435318,12.9173,0.659481,13,0.883644,13C1.09754,13,1.31143,12.9243,1.4774,12.773C1.4774,12.773,7.7167,7.07378,7.7167,7.07378C7.72869,7.06242,7.73323,7.04676,7.74522,7.03487C7.75435,7.02677,7.76404,7.02081,7.77315,7.01218C7.82162,6.96403,7.84729,6.9051,7.88037,6.84997Z" fill="#575B66" fill-opacity="1"/></g></svg>