<svg xmlns="http://www.w3.org/2000/svg" xmlns:xlink="http://www.w3.org/1999/xlink" fill="none" version="1.1" width="166" height="167" viewBox="0 0 166 167"><g><g><g><path d="M0,0L0.530005,0L0,0.599736L0,0Z" fill="#FDEB78" fill-opacity="1" style="mix-blend-mode:passthrough"/></g><g><path d="M39.84207534790039,26.71553957672119C60.74987534790039,10.122814576721192,90.9784753479004,3.961889576721191,115.72427534790039,15.50225957672119C114.40837534790039,16.84712957672119,113.09247534790039,18.21015957672119,111.8131753479004,19.59133957672119C91.54497534790039,10.631679576721192,67.09167534790039,14.793489576721193,48.79733534790039,26.352039576721193C45.81834534790039,26.49743957672119,42.83934534790039,26.60643957672119,39.84207534790039,26.71553957672119Z" fill="#ECAF55" fill-opacity="1" style="mix-blend-mode:passthrough"/></g><g><path d="M115.72413346923828,15.502260556640625C125.77594346923829,9.250470556640625,140.79884346923828,15.284180556640624,141.89544346923827,27.442470556640625C141.36544346923827,33.96687055664063,148.38344346923827,36.92917055664063,150.61314346923828,42.381370556640626C145.4775434692383,43.43537055664062,142.4619434692383,38.12867055664063,137.67364346923827,37.31087055664062C134.36574346923828,36.565670556640626,135.07844346923827,32.42207055664063,133.98194346923827,30.004970556640625C132.97674346923827,24.516470556640627,126.79944346923828,21.645020556640624,121.64554346923828,22.699100556640623C116.56483346923828,24.280170556640627,115.96172346923828,32.38577055664062,109.61993246923828,31.168070556640625C108.46854146923827,27.097170556640627,109.19958646923828,22.935350556640625,111.81306346923829,19.591370556640626C113.09238346923829,18.210160556640623,114.40826346923828,16.847130556640625,115.72413346923828,15.502260556640625Z" fill="#A43F0E" fill-opacity="1" style="mix-blend-mode:passthrough"/></g><g><path d="M48.797027828979495,26.35206092071533C67.09142782897949,14.793484320715333,91.54472782897949,10.631680920715333,111.8129278289795,19.59137092071533C109.1994278289795,22.93535092071533,108.46842782897949,27.097160920715332,109.61972782897949,31.16806092071533C115.9615278289795,32.38576092071533,116.5646278289795,24.280210920715334,121.64542782897949,22.69909092071533C126.7992278289795,21.645010920715333,132.9762278289795,24.51648092071533,133.9822278289795,30.004960920715334C135.0782278289795,32.42206092071533,134.3652278289795,36.565760920715334,137.6732278289795,37.31086092071533C142.4622278289795,38.12866092071533,145.4772278289795,43.43546092071533,150.6132278289795,42.38136092071533C150.9782278289795,42.653960920715335,151.7092278289795,43.217360920715336,152.0752278289795,43.48996092071533L151.6362278289795,44.18056092071534C112.8729278289795,47.797160920715335,74.16422782897949,52.158860920715334,35.382427828979495,55.53916092071533C31.74550782897949,54.35786092071533,27.96236782897949,54.01256092071533,24.179227828979492,53.75816092071533C25.62303782897949,50.85036092071533,27.23132782897949,48.03336092071533,28.949277828979493,45.28916092071533C30.685507828979492,46.32506092071533,32.531377828979494,47.08836092071533,34.46862782897949,47.597260920715335C36.241427828979496,44.616760920715336,36.71662782897949,41.12736092071533,38.12382782897949,37.98326092071533C41.066327828979496,35.31176092071533,45.87292782897949,33.766960920715334,49.47332782897949,36.03866092071533C52.03192782897949,38.76476092071533,53.93262782897949,43.380860920715335,58.57472782897949,42.03606092071533C61.57202782897949,34.83916092071533,55.44952782897949,28.20576092071533,48.797027828979495,26.35206092071533Z" fill="#FDEB78" fill-opacity="1" style="mix-blend-mode:passthrough"/></g><g><path d="M29.077194896972657,36.71113170776367C31.727216896972656,32.56747170776367,35.07173689697266,28.405671707763673,39.841756896972655,26.71550770776367C42.83905689697266,26.60646470776367,45.81805689697266,26.49742170776367,48.797056896972656,26.352031707763672C55.44955689697265,28.20576170776367,61.572056896972654,34.83920170776367,58.57475689697266,42.03603170776367C53.93265689697266,43.38093170776367,52.03195689697266,38.76473170776367,49.47325689697266,36.03867170776367C45.87285689697266,33.76694170776367,41.06625689697266,35.311721707763674,38.123836896972655,37.98323170776367C36.716576896972654,41.12733170776367,36.241406896972656,44.61673170776368,34.46862689697266,47.59723170776367C32.528296896972655,47.091431707763675,30.669976896972656,46.31433170776367,28.949256896972656,45.28913170776367C28.967531796972658,42.43583170776367,28.967531796972658,39.564431707763674,29.077194896972657,36.71113170776367Z" fill="#A43F0E" fill-opacity="1" style="mix-blend-mode:passthrough"/></g><g><path d="M16.046659469604492,57.70190916137695C19.24496946960449,50.087009161376955,23.667769469604494,42.96289916137695,29.07745946960449,36.71110916137695C28.96785946960449,39.564399161376954,28.96785946960449,42.43585916137695,28.949559469604495,45.289149161376955C27.23155946960449,48.03340916137695,25.623309469604493,50.850309161376956,24.179499469604494,53.75810916137695C27.962659469604493,54.01260916137696,31.745759469604494,54.35790916137695,35.382759469604494,55.53920916137695C29.02265946960449,56.829509161376954,22.552929469604493,57.64730916137695,16.046659469604492,57.70190916137695Z" fill="#ECAF55" fill-opacity="1" style="mix-blend-mode:passthrough"/></g><g><path d="M35.3827327545166,55.53914580688476C74.1645327545166,52.15884580688476,112.8734327545166,47.79713580688477,151.6364327545166,44.180545806884766L153.5744327545166,45.234625806884765L153.4824327545166,47.324615806884765C153.3544327545166,50.196075806884764,153.3364327545166,53.049365806884765,153.2814327545166,55.92084580688476L149.0414327545166,56.865845806884764C148.8954327545166,57.974445806884766,148.5844327545166,60.209845806884765,148.4384327545166,61.33664580688476C145.7704327545166,62.790545806884765,143.8874327545166,64.89864580688476,143.0834327545166,67.84284580688477C142.1694327545166,68.27904580688477,140.3424327545166,69.16954580688477,139.4464327545166,69.62384580688476C138.8254327545166,71.38674580688476,138.2224327545166,73.14964580688476,137.58243275451662,74.91244580688476C124.8444327545166,75.54854580688476,111.8864327545166,78.07474580688476,99.3306327545166,78.05654580688477L97.5761327545166,73.62214580688476C96.5527327545166,73.44034580688476,94.5057327545166,73.09504580688477,93.4823327545166,72.91334580688476C91.8009327545166,70.84154580688477,90.7226327545166,68.04274580688477,87.81673275451661,67.47934580688477C83.8142327545166,65.95274580688476,86.55563275451661,60.409745806884764,84.3260327545166,57.50194580688476C81.2008327545166,57.411045806884765,78.0756327545166,57.68364580688477,74.9686327545166,58.01084580688477C74.8224327545166,61.68194580688477,75.2062327545166,65.35304580688477,75.2793327545166,69.02414580688476C74.12793275451659,69.33314580688477,71.7886327545166,69.93284580688477,70.6189327545166,70.24174580688477C70.2351327545166,71.98644580688477,69.7417327545166,73.69484580688476,69.1569327545166,75.36684580688477C68.1151327545166,75.76664580688477,66.0499327545166,76.58444580688476,65.0082327545166,76.98424580688476C65.08133275451661,78.87434580688478,64.7523327545166,80.63724580688476,64.0030327545166,82.25464580688477C62.3947327545166,82.45454580688477,59.1598327545166,82.89074580688477,57.5333327545166,83.10884580688477C48.9253327545166,83.92664580688476,40.1710327545166,84.76264580688476,31.544732754516602,84.30834580688477C30.6309327545166,79.71034580688476,24.5998327545166,80.34644580688476,23.868832754516603,75.60304580688477C21.3467327545166,74.51264580688476,18.5322127545166,74.00374580688477,16.631512754516603,71.82294580688476C16.1563327545166,71.53214580688477,15.169422754516601,70.91424580688476,14.675972754516602,70.62344580688477C13.926652754516601,71.02324580688477,12.409742754516602,71.80474580688477,11.6604227545166,72.20454580688477C11.002484754516601,67.46114580688476,10.655240754516601,62.68144580688477,10.856276354516602,57.90174580688476C12.153872754516602,57.847245806884764,14.749072754516602,57.75634580688477,16.0466727545166,57.70184580688476C22.552932754516604,57.647345806884765,29.0226327545166,56.82954580688477,35.3827327545166,55.53914580688476ZM136.8694327545166,51.104765806884764C136.76043275451661,52.576835806884766,136.5594327545166,55.53914580688476,136.4494327545166,57.011245806884766C137.9484327545166,56.93854580688476,140.9634327545166,56.774945806884766,142.4804327545166,56.702345806884765C142.4074327545166,55.32104580688477,142.2974327545166,52.54049580688476,142.2244327545166,51.15928580688477C140.8904327545166,51.15928580688477,138.2224327545166,51.12293580688477,136.8694327545166,51.104765806884764ZM126.34243275451661,53.35831580688477C123.4364327545166,55.302945806884765,126.8904327545166,59.446545806884764,129.50443275451659,57.48374580688477C132.4834327545166,55.648245806884766,128.9374327545166,51.23197580688476,126.34243275451661,53.35831580688477ZM130.74743275451658,57.55644580688477C131.02143275451658,58.992145806884764,131.5514327545166,61.88184580688477,131.8254327545166,63.335745806884766C133.0684327545166,63.335745806884766,135.5354327545166,63.37204580688477,136.7784327545166,63.37204580688477C136.9424327545166,61.918145806884766,137.27143275451658,59.010345806884764,137.4544327545166,57.55644580688477L130.74743275451658,57.55644580688477ZM51.4839327545166,59.773645806884765C51.4473327545166,61.173045806884765,51.356032754516605,64.00814580688477,51.3011327545166,65.40754580688477C47.847032754516604,65.24394580688477,44.5755327545166,67.82464580688477,47.0794327545166,71.31404580688476C50.990432754516604,73.80384580688477,52.2880327545166,69.86014580688476,52.5074327545166,66.78874580688476C53.6039327545166,66.42524580688476,55.8336327545166,65.68014580688477,56.9302327545166,65.29854580688476C56.9850327545166,63.935445806884765,57.0581327545166,61.209445806884766,57.0946327545166,59.84634580688477L51.4839327545166,59.773645806884765ZM64.1309327545166,60.13714580688477C63.107532754516605,63.099445806884766,64.1127327545166,64.13534580688477,67.1648327545166,63.22664580688476C68.1699327545166,60.228045806884765,67.1648327545166,59.19214580688477,64.1309327545166,60.13714580688477ZM121.0064327545166,60.13714580688477C118.7584327545166,62.754145806884765,123.4364327545166,66.04364580688477,125.2094327545166,63.099445806884766C127.3844327545166,60.518745806884766,122.8154327545166,57.28384580688477,121.0064327545166,60.13714580688477ZM125.2094327545166,63.099445806884766C125.4474327545166,64.64424580688477,125.95843275451661,67.71564580688477,126.21443275451661,69.24224580688477C127.6404327545166,69.26034580688477,130.4914327545166,69.29674580688476,131.91643275451662,69.29674580688476C131.8984327545166,67.80644580688477,131.84343275451658,64.82594580688476,131.8254327545166,63.335745806884766C130.1804327545166,63.28124580688477,126.85443275451661,63.153945806884764,125.2094327545166,63.099445806884766ZM59.0136327545166,70.04184580688477C61.5905327545166,72.27724580688476,65.0264327545166,67.67924580688477,62.0657327545166,65.89824580688477C59.415732754516604,63.917245806884765,56.0346327545166,68.20634580688477,59.0136327545166,70.04184580688477ZM115.1214327545166,65.06224580688476L115.4134327545166,70.73244580688477C116.6194327545166,70.69614580688477,119.0324327545166,70.64164580688477,120.2384327545166,70.62344580688477C120.47643275451661,69.11504580688477,120.9324327545166,66.11634580688477,121.1704327545166,64.62604580688476L115.1214327545166,65.06224580688476ZM40.9021327545166,73.60394580688477C40.9021327545166,74.58534580688476,40.883832754516604,76.52994580688477,40.883832754516604,77.51124580688477C42.930732754516605,77.85664580688476,44.9776327545166,77.92924580688477,47.0611327545166,77.74754580688477C47.4997327545166,75.56674580688477,47.4997327545166,73.44034580688476,47.0794327545166,71.31404580688476C44.8497327545166,71.55024580688476,42.4738327545166,71.82284580688477,40.9021327545166,73.60394580688477ZM52.2515327545166,70.58704580688476C52.3977327545166,72.09544580688477,52.726732754516604,75.07604580688476,52.872932754516604,76.56624580688477L58.4837327545166,76.56624580688477C58.6116327545166,74.94874580688477,58.8857327545166,71.67754580688477,59.0136327545166,70.04184580688477C57.3140327545166,70.18724580688476,53.9329327545166,70.45984580688477,52.2515327545166,70.58704580688476Z" fill="#1F1F1F" fill-opacity="1" style="mix-blend-mode:passthrough"/></g><g><path d="M153.4825729736328,47.32461166381836C159.82436297363282,54.73953166381836,161.72507297363282,64.98951166381836,164.68577297363282,74.11281166381836C168.10337297363282,88.99721166381836,164.35677297363281,104.09961166381837,159.16641297363282,118.09341166381836C157.8870929736328,121.36471166381835,156.47983297363282,124.61781166381836,154.41463297363282,127.47111166381836L153.7932529736328,127.54381166381836L151.67322957363282,127.10761166381836L151.6366729736328,125.67191166381836C155.96809297363282,113.60451166381836,163.20537297363282,101.40991166381835,160.8112429736328,88.12481166381835C160.77469297363282,76.94791166381836,157.66777297363282,66.13451166381836,153.2815129736328,55.92082166381836C153.3363429736328,53.049351663818356,153.3546129736328,50.19606166381836,153.4825729736328,47.32461166381836Z" fill="#ECAF55" fill-opacity="1" style="mix-blend-mode:passthrough"/></g><g><path d="M136.86937770996093,51.10476303100586C138.22177770996095,51.12293573100586,140.89007770996093,51.15928443100586,142.22417770996094,51.15928443100586C142.29727770996095,52.54049303100586,142.40697770996093,55.321083031005855,142.48007770996094,56.70230303100586C140.96317770996095,56.77499303100586,137.94767770996094,56.938563031005856,136.44897770996093,57.01125303100586C136.55867770996093,55.53917303100586,136.75967770996093,52.57684303100586,136.86937770996093,51.10476303100586ZM126.34232770996094,53.35832303100586C128.93752770996093,51.231982031005856,132.48308770996093,55.648223031005855,129.50409770996094,57.48377303100586C126.89061770996094,59.44654303100586,123.43643770996094,55.30291303100586,126.34232770996094,53.35832303100586Z" fill="#858585" fill-opacity="1" style="mix-blend-mode:passthrough"/></g><g><path d="M149.04092628784178,56.86586695825196L153.2809262878418,55.92082595825195C157.6667262878418,66.13452595825196,160.77372628784178,76.94792595825196,160.81072628784182,88.12482595825196C150.35682628784178,98.04772595825196,137.0152262878418,103.51802595825195,124.4962262878418,110.27872595825195C124.2951262878418,106.06242595825195,126.5979262878418,100.82832595825195,122.6320262878418,97.75692595825195C120.45712628784179,94.04952595825196,119.6347262878418,88.67002595825195,115.0292262878418,87.12522595825195C111.6298262878418,87.23432595825196,109.21742628784179,89.94222595825195,108.26702628784179,92.97722595825195C104.7763262878418,101.90062595825195,97.0638262878418,108.66122595825195,88.2547262878418,112.20512595825195C87.7613262878418,111.49632595825196,86.7927262878418,110.06062595825196,86.2992262878418,109.33362595825196C89.0954262878418,107.20732595825194,95.5834262878418,106.78932595825195,93.50002628784179,101.97332595825196C86.11642628784179,98.30212595825196,78.1846262878418,95.63062595825195,71.8246262878418,90.17842595825195C67.8038262878418,86.18022595825195,61.0051762878418,87.79772595825196,57.5327262878418,83.10882595825196C59.1592962878418,82.89072595825195,62.394156287841795,82.45462595825195,64.00244628784179,82.25472595825195C64.7517662878418,80.63722595825195,65.0807362878418,78.87432595825194,65.00763628784179,76.98432595825196C66.04936628784179,76.58442595825196,68.1145262878418,75.76662595825195,69.1563262878418,75.36682595825195C69.7411262878418,73.69482595825195,70.23462628784179,71.98652595825195,70.6183262878418,70.24182595825195C71.7880262878418,69.93282595825195,74.1274262878418,69.33312595825196,75.27872628784179,69.02412595825196C75.2056262878418,65.35304595825195,74.8218262878418,61.681935958251955,74.9681262878418,58.01082595825196C78.0750262878418,57.68369595825195,81.2002262878418,57.41108595825195,84.3254262878418,57.501955958251955C86.5551262878418,60.40976595825195,83.8137262878418,65.95282595825195,87.8161262878418,67.47942595825195C90.7220262878418,68.04272595825195,91.8003262878418,70.84152595825195,93.4817262878418,72.91332595825196C94.50512628784179,73.09512595825196,96.55212628784179,73.44042595825195,97.5755262878418,73.62212595825196L99.3300262878418,78.05652595825195C111.8857262878418,78.07472595825195,124.8434262878418,75.54852595825196,137.5818262878418,74.91242595825196C138.2215262878418,73.14962595825196,138.8246262878418,71.38672595825196,139.4460262878418,69.62392595825196C140.34152628784182,69.16952595825195,142.16912628784178,68.27902595825195,143.08292628784181,67.84282595825195C143.8870262878418,64.89870595825195,145.7695262878418,62.79053595825195,148.4378262878418,61.336635958251954C148.5840262878418,60.20985595825195,148.8947262878418,57.97447595825195,149.04092628784178,56.86586695825196Z" fill="#FDEB78" fill-opacity="1" style="mix-blend-mode:passthrough"/></g><g><path d="M130.74644028930663,57.55646896362305L137.45384028930664,57.55646896362305C137.27104028930665,59.010368963623044,136.94204028930665,61.918188963623045,136.77764028930665,63.37208896362305C135.53484028930666,63.37208896362305,133.06754028930663,63.335738963623044,131.82474028930665,63.335738963623044C131.55064028930664,61.881838963623046,131.02064028930664,58.992198963623046,130.74644028930663,57.55646896362305ZM51.48326028930664,59.77367896362305L57.09404028930664,59.846378963623046C57.05744028930664,61.20940896362305,56.984340289306644,63.93547896362305,56.929540289306644,65.29851896362305C55.83296028930664,65.68016896362305,53.60328028930664,66.42529896362305,52.50672028930664,66.78877896362305C52.28741028930664,69.86016896362304,50.98980028930664,73.80386896362305,47.07873128930664,71.31406896362304C44.574910289306644,67.82466896362305,47.84633028930664,65.24399896362304,51.30050028930664,65.40755896362305C51.35533028930664,64.00817896362305,51.44671028930664,61.173068963623045,51.48326028930664,59.77367896362305ZM64.13024028930664,60.13714896362305C67.16414028930664,59.19210896362305,68.16934028930663,60.22801896362304,67.16414028930664,63.22669896362305C64.11204028930663,64.13538896362304,63.10684028930664,63.09947896362305,64.13024028930664,60.13714896362305ZM121.00534028930664,60.13714896362305C122.81464028930664,57.283861963623046,127.38374028930664,60.51879896362305,125.20884028930664,63.099488963623045C123.43604028930665,66.04363896362305,118.75744028930664,62.75417896362305,121.00534028930664,60.13714896362305Z" fill="#858585" fill-opacity="1" style="mix-blend-mode:passthrough"/></g><g><path d="M125.20950991210937,63.099483489990234C126.85440991210938,63.15400488999023,130.1806099121094,63.28122348999023,131.8255099121094,63.33574548999024C131.84370991210938,64.82600348999023,131.89850991210938,67.80650348999023,131.9168099121094,69.29676348999024C130.4913099121094,69.29676348999024,127.64020991210937,69.26041348999023,126.21470991210937,69.24223348999024C125.95880991210937,67.71563348999024,125.44710991210937,64.64426348999024,125.20950991210937,63.099483489990234ZM59.013659912109375,70.04187348999024C56.03466991210937,68.20632348999024,59.41573991210937,63.91729848999024,62.06575991210937,65.89824348999024C65.02647991210938,67.67927348999024,61.59058991210937,72.27725348999023,59.013659912109375,70.04187348999024ZM115.12110991210938,65.06225348999024L121.17050991210937,64.62608348999024C120.93290991210938,66.11634348999023,120.47600991210938,69.11501348999023,120.23840991210938,70.62344348999024C119.03220991210938,70.64161348999023,116.61980991210937,70.69614348999023,115.41350991210938,70.73248348999023L115.12110991210938,65.06225348999024Z" fill="#858585" fill-opacity="1" style="mix-blend-mode:passthrough"/></g><g><path d="M11.659793572692871,72.20456360351562C12.40911357269287,71.80474360351562,13.926023572692872,71.02326960351563,14.67534357269287,70.62344360351562C15.168803572692871,70.91422660351563,16.15570357269287,71.53213160351562,16.63088357269287,71.82291360351563C12.537053572692871,78.74713360351562,14.145343572692871,86.99804360351563,14.127063572692872,94.59474360351562C15.570873572692872,107.84344360351562,19.93885357269287,121.49194360351562,29.46071357269287,131.25124360351563C29.05861357269287,131.83284360351564,28.272713572692872,133.03234360351564,27.87061357269287,133.63204360351563C26.28061357269287,131.99644360351562,24.47131357269287,130.72424360351562,22.44271357269287,129.77924360351562C21.400913572692872,127.92544360351562,20.34091357269287,126.07174360351563,19.372293572692872,124.18164360351562C11.257723572692871,108.27954360351563,7.858383572692871,89.76044360351563,11.659793572692871,72.20456360351562Z" fill="#ECAF55" fill-opacity="1" style="mix-blend-mode:passthrough"/></g><g><path d="M40.90208303598633,73.60394774658204C42.47382813598633,71.82291774658204,44.849708135986326,71.55030774658204,47.07938813598633,71.31404774658203C47.49973813598633,73.44038774658203,47.49973813598633,75.56671774658203,47.06111813598633,77.74757774658204C44.97764813598633,77.92931774658203,42.93072813598633,77.85661774658203,40.88380813598633,77.51131774658204C40.88380813598633,76.52992774658203,40.90208303598633,74.58533774658203,40.90208303598633,73.60394774658204ZM52.25150813598633,70.58709174658203C53.932908135986324,70.45987274658204,57.31400813598633,70.18726574658203,59.01360813598633,70.04187774658203C58.88570813598633,71.67751774658203,58.61160813598633,74.94880774658203,58.48360813598633,76.56627774658203L52.87290813598633,76.56627774658203C52.72670813598633,75.07601774658202,52.39770813598633,72.09551774658203,52.25150813598633,70.58709174658203Z" fill="#858585" fill-opacity="1" style="mix-blend-mode:passthrough"/></g><g><path d="M16.63140877380371,71.82291412353516C18.53211877380371,74.00377412353515,21.34662877380371,74.51264412353515,23.868758773803712,75.60307412353515C24.59975877380371,80.34643412353516,30.630858773803713,79.71035412353515,31.54465877380371,84.30831412353515C33.39055877380371,84.69001412353515,35.181558773803715,85.27151412353516,36.89955877380371,86.05301412353515C36.735058773803715,88.08851412353516,35.94915877380371,90.14211412353515,36.387858773803714,92.21391412353515C42.089958773803716,98.48391412353516,44.73995877380371,107.00741412353516,51.92245877380371,111.95071412353516C52.83625877380371,116.13071412353516,51.611758773803714,120.96491412353515,54.55425877380371,124.49061412353515C55.37665877380371,123.76371412353515,56.98495877380371,122.30981412353515,57.78905877380371,121.58281412353516C60.62185877380371,125.92641412353515,63.83845877380371,130.10631412353516,67.85915877380371,133.46851412353516C81.18245877380372,143.19151412353517,100.66465877380371,142.10101412353515,112.48925877380371,130.46981412353517C114.73725877380372,128.61611412353517,116.23625877380371,126.07171412353516,117.80725877380371,123.65461412353515C118.9402587738037,121.81911412353516,119.9462587738037,119.91081412353515,120.75025877380371,117.91171412353515C123.0712587738037,111.44181412353515,123.03425877380371,104.51761412353515,122.63225877380371,97.75691412353515C126.5982587738037,100.82831412353516,124.29525877380371,106.06241412353515,124.49625877380372,110.27871412353517C137.0162587738037,103.51801412353515,150.35725877380372,98.04771412353516,160.8112587738037,88.12481412353516C163.2052587738037,101.40991412353516,155.9682587738037,113.60451412353515,151.63625877380372,125.67191412353515C149.1692587738037,124.27251412353516,146.3362587738037,125.21761412353516,144.2352587738037,126.74421412353516C141.6942587738037,127.12581412353515,140.4882587738037,128.57971412353515,140.6342587738037,131.12411412353515C136.7602587738037,130.88781412353515,130.2902587738037,135.90381412353514,137.5272587738037,136.63071412353514L137.4912587738037,138.26641412353516C133.98225877380372,138.41181412353515,130.16225877380373,137.90291412353514,126.87225877380371,139.28411412353518C126.67125877380371,139.46581412353515,126.26925877380371,139.81121412353514,126.0682587738037,139.97471412353514L125.4102587738037,140.62901412353517C119.0322587738037,139.92021412353517,114.29825877380371,144.62721412353517,108.37715877380371,145.57231412353514C104.50265877380372,146.55361412353517,98.27045877380371,145.88121412353516,100.2625587738037,151.82411412353514L98.01465877380372,151.75141412353514L97.55775877380371,151.67871412353514C96.86325877380371,150.42471412353515,95.5108587738037,147.93491412353515,94.8345587738037,146.69911412353514C89.68075877380372,146.60821412353516,84.80105877380372,148.75271412353516,79.77515877380371,149.58871412353517C79.00755877380371,148.95261412353517,77.49065877380372,147.66231412353517,76.74135877380371,147.00801412353516C75.38885877380372,144.99071412353516,73.5612587738037,144.42731412353515,71.2402587738037,145.33601412353516C59.26945877380371,144.48181412353517,49.12615877380371,137.55761412353516,39.11095877380371,131.81471412353517C36.51575877380371,128.50711412353516,32.67775877380371,129.67021412353515,29.46115877380371,131.25131412353517C19.93935877380371,121.49201412353516,15.57137877380371,107.84341412353515,14.12757177380371,94.59471412353516C14.14584777380371,86.99811412353516,12.537558773803712,78.74719412353515,16.63140877380371,71.82291412353516Z" fill="#FFCD73" fill-opacity="1" style="mix-blend-mode:passthrough"/></g><g><path d="M31.544179916381836,84.30831857177735C40.17046991638183,84.76266857177734,48.924679916381834,83.92667057177735,57.53267991638184,83.10884857177734C61.005179916381834,87.79768857177734,67.80387991638185,86.18022857177735,71.82457991638184,90.17845857177734C78.18467991638184,95.63064857177734,86.11647991638183,98.30214857177734,93.49997991638185,101.97324857177735C95.58347991638183,106.78934857177734,89.09547991638183,107.20734857177735,86.29917991638183,109.33364857177735C86.79267991638184,110.06064857177734,87.76127991638184,111.49634857177735,88.25477991638184,112.20514857177734C79.20807991638183,117.87534857177735,68.64457991638184,113.87714857177734,58.921679916381834,114.87664857177734C58.04447991638183,117.00304857177734,57.67887991638183,119.23834857177735,57.788579916381835,121.58284857177733C56.98447991638184,122.30974857177733,55.37617991638184,123.76364857177734,54.55367991638184,124.49064857177734C51.61127991638183,120.96484857177734,52.83577991638184,116.13064857177734,51.92197991638184,111.95064857177735C44.73947991638184,107.00744857177735,42.08947991638183,98.48384857177734,36.38732991638184,92.21391857177734C35.948699916381834,90.14210857177734,36.73456991638184,88.08846857177734,36.899049916381834,86.05299857177734C35.181109916381835,85.27152857177734,33.390049916381834,84.68996857177734,31.544179916381836,84.30831857177735Z" fill="#FEDC76" fill-opacity="1" style="mix-blend-mode:passthrough"/></g><g><path d="M108.26735849609375,92.97723702880859C109.21765849609375,89.9422170288086,111.63015849609374,87.2343100288086,115.02945849609375,87.1252670288086C119.63505849609375,88.6700470288086,120.45745849609375,94.0494870288086,122.63235849609374,97.75696702880859C123.03435849609374,104.5175670288086,123.07095849609375,111.44186702880859,120.74985849609375,117.9116670288086C108.34045849609376,112.0233670288086,93.29925849609376,114.2042670288086,81.60255849609375,120.80136702880858C78.47735849609376,122.2188670288086,76.41215849609375,125.0358670288086,74.34695849609375,127.6346670288086C72.48285849609375,129.8882670288086,70.36275849609375,131.9418670288086,67.85895849609375,133.4684670288086C63.83824849609375,130.1063670288086,60.62166849609375,125.92636702880858,57.78887929609375,121.5828670288086C57.67922299609375,119.2383670288086,58.04474149609375,117.0030670288086,58.92198849609375,114.8766670288086C68.64485849609375,113.8771670288086,79.20835849609375,117.8753670288086,88.25505849609375,112.20516702880859C97.06415849609374,108.6612670288086,104.77655849609374,101.9005670288086,108.26735849609375,92.97723702880859Z" fill="#7D180F" fill-opacity="1" style="mix-blend-mode:passthrough"/></g><g><path d="M81.60227966308594,120.801337421875C93.29897966308593,114.204247421875,108.34017966308593,112.023387421875,120.74957966308594,117.911707421875C119.94547966308593,119.910827421875,118.94027966308593,121.819077421875,117.80717966308595,123.654627421875C106.20187966308593,119.129347421875,93.26237966308594,124.726907421875,81.60227966308594,120.801337421875Z" fill="#E8674D" fill-opacity="1" style="mix-blend-mode:passthrough"/></g><g><path d="M159.16642783203125,118.09345245361328C161.65192783203125,122.63690245361329,159.36742783203124,128.1253524536133,156.00462783203125,131.5784524536133C154.67052783203124,134.26815245361328,155.54772783203126,140.28365245361329,151.21632783203125,139.8293524536133C150.54012783203126,139.93835245361328,149.18772783203124,140.1382524536133,148.51152783203125,140.24735245361327C148.32872783203126,140.86525245361327,147.92662783203124,142.08285245361327,147.74392783203126,142.7007524536133L145.71526783203126,146.17195245361327L143.86937783203126,144.8453524536133C143.97903783203125,144.00935245361327,144.16178783203125,142.31915245361327,144.27144783203124,141.4831524536133L144.05213783203126,140.22915245361327L142.59004783203125,139.4113524536133C142.13314783203126,139.2477524536133,141.21933783203124,138.9388524536133,140.76244783203126,138.7752524536133L137.49102783203125,138.26635245361328L137.52758443203126,136.63075245361327C137.78345383203126,136.30365245361327,138.31344983203124,135.6493524536133,138.56931783203126,135.3222524536133C139.08104783203126,134.26815245361328,140.12277783203126,132.17815245361328,140.63451783203124,131.12405245361327C143.19316783203124,130.74245245361328,144.39938783203124,129.28855245361328,144.23490783203124,126.74419245361328C146.66561783203124,127.56201245361328,149.15112783203125,127.68922245361328,151.67322783203124,127.10767245361328L153.79332783203125,127.54384245361328C153.92122783203126,127.58019245361328,154.17712783203126,127.63472245361328,154.30502783203124,127.67105245361329L154.41462783203124,127.47114245361328C156.47982783203125,124.61785245361328,157.88712783203124,121.36474245361327,159.16642783203125,118.09345245361328ZM145.71527783203126,131.2331524536133C142.02351783203125,128.94325245361327,142.02351783203125,137.13965245361328,145.80665783203125,134.4498524536133C146.42804783203124,134.97695245361328,147.65252783203124,136.0491524536133,148.25562783203125,136.57625245361328C148.67602783203125,136.88515245361327,149.51672783203125,137.46675245361328,149.93702783203125,137.75755245361327C150.28432783203124,137.35775245361327,151.01532783203126,136.5398524536133,151.36262783203125,136.1400524536133C154.35982783203124,136.57625245361328,154.06742783203126,130.63335245361327,151.17982783203126,130.8514524536133C150.90572783203126,130.5243524536133,150.35742783203125,129.8882524536133,150.08322783203124,129.5611524536133L145.71527783203126,131.2331524536133Z" fill="#FDEB78" fill-opacity="1" style="mix-blend-mode:passthrough"/></g><g><path d="M74.34697723388672,127.63470345458984C76.41216723388672,125.03584345458984,78.47736723388672,122.21891345458984,81.60256723388672,120.80135345458984C93.26267723388672,124.72689345458984,106.20217723388672,119.12935345458985,117.80747723388671,123.65463345458984C116.23567723388672,126.07175345458984,114.73707723388671,128.61609345458984,112.48907723388672,130.46981345458985C99.98827723388672,127.30757345458984,86.29947723388672,132.75975345458986,74.34697723388672,127.63470345458984Z" fill="#E45B34" fill-opacity="1" style="mix-blend-mode:passthrough"/></g><g><path d="M19.372410540161134,124.18167877197266C20.34104054016113,126.07175877197265,21.401050540161133,127.92548877197265,22.442790540161134,129.77921877197267C20.962430540161133,133.26858877197265,25.988340540161133,138.57537877197265,27.870750540161133,133.63206877197265C28.272850540161134,133.03233877197266,29.058750540161135,131.83285877197267,29.460750540161133,131.25129877197264C32.67735054016113,129.67017877197264,36.51535054016114,128.50705877197265,39.11055054016113,131.81467877197267C49.12585054016113,137.55757877197266,59.26905054016113,144.48177877197264,71.23985054016114,145.33597877197266C72.46435054016113,147.66227877197267,74.29195054016114,148.22567877197267,76.74095054016112,147.00797877197266C77.49025054016113,147.66227877197267,79.00715054016113,148.95257877197267,79.77475054016114,149.58867877197267C85.03825054016113,152.71457877197267,91.67245054016114,153.25977877197266,97.55735054016114,151.67867877197267L98.01425054016113,151.75137877197267L100.26225054016113,151.82407877197267C107.09745054016113,151.55147877197265,113.21995054016114,148.28017877197266,119.76285054016114,146.62637877197267C122.99785054016114,146.28107877197266,123.76485054016113,142.80987877197265,125.40985054016113,140.62897877197264L126.06785054016113,139.97467877197266C126.26885054016114,139.81117877197266,126.67085054016113,139.46587877197265,126.87185054016113,139.28407877197264C130.16185054016114,137.90287877197267,133.98185054016113,138.41177877197265,137.49085054016115,138.26637877197265C137.74685054016112,140.46537877197267,138.56885054016112,142.68257877197266,140.50585054016113,143.97297877197266C140.92685054016113,144.15467877197267,141.80385054016114,144.51817877197266,142.24185054016112,144.71807877197267L143.86885054016113,144.84527877197266L145.60485054016112,146.60817877197266C142.00485054016113,148.93437877197266,138.31285054016115,151.26067877197266,134.76785054016113,153.31427877197265L133.37885054016112,152.60547877197266L133.35985054016112,153.98667877197266C129.04685054016113,155.87677877197265,125.17285054016114,159.02087877197266,120.27485054016114,159.20257877197264C116.60105054016114,164.34577877197265,109.60135054016114,160.94727877197266,106.05575054016113,166.23587877197266C100.49985054016113,165.12727877197267,94.94395054016114,166.81747877197267,89.53415054016114,165.49077877197266C83.83205054016113,170.50667877197264,79.48235054016114,161.27437877197266,73.21365054016113,162.91007877197265C64.84325054016114,161.47437877197265,56.070750540161136,159.16627877197266,49.16245054016113,154.44107877197266C51.702750540161134,155.64057877197266,55.23005054016113,154.40467877197267,55.37625054016113,151.35147877197267C56.856650540161134,149.49777877197266,58.519750540161134,147.71677877197266,59.17765054016113,145.39047877197265C57.45975054016113,142.44637877197266,54.170050540161135,142.80987877197265,51.282450540161136,143.11877877197264C51.17275054016113,145.51767877197267,51.154450540161136,147.89847877197266,51.191050540161136,150.27927877197266C50.67935054016113,151.31517877197265,49.674150540161136,153.40517877197266,49.16245054016113,154.44107877197266C45.32445054016114,153.09617877197266,41.35855054016113,151.76947877197267,38.74505054016113,148.44367877197266C31.178750540161133,149.24337877197266,29.314650540161132,140.50177877197265,22.77178054016113,139.10237877197267C18.403808540161133,135.74017877197267,16.13758054016113,129.05223877197267,19.372410540161134,124.18167877197266ZM32.82365054016113,134.34077877197265L30.922950540161132,134.32267877197265C29.479050540161133,139.28407877197264,33.20745054016113,145.66307877197266,38.98265054016113,144.20917877197266L37.81295054016113,138.01187877197265C40.627450540161135,134.92237877197266,34.267450540161136,130.05178877197267,32.82365054016113,134.34077877197265ZM41.57785054016114,137.63027877197266C41.19405054016113,141.55577877197265,40.73715054016113,146.09927877197265,43.71615054016114,149.20697877197267C44.52025054016113,148.71627877197267,46.12855054016113,147.71677877197266,46.93275054016114,147.22607877197265C49.18065054016113,149.13427877197265,49.93005054016113,148.53457877197266,49.198950540161135,145.44497877197267C52.561750540161135,140.01097877197265,46.80475054016114,135.61297877197265,41.57785054016114,137.63027877197266ZM132.06285054016115,141.82837877197267C127.43885054016113,141.84657877197264,129.35785054016114,148.93437877197266,133.30585054016115,147.20787877197264L133.63385054016112,148.44367877197266C136.28385054016113,150.75177877197265,138.62385054016113,144.89977877197265,135.04185054016114,144.89977877197265L134.58485054016114,143.35507877197267C134.25585054016113,143.02787877197267,133.57985054016115,142.33727877197265,133.25085054016114,142.01017877197265C132.95785054016113,141.95567877197266,132.35485054016112,141.86477877197265,132.06285054016115,141.82837877197267ZM120.27485054016114,152.46007877197266C121.29785054016114,152.55097877197267,123.32685054016113,152.75087877197265,124.33185054016113,152.84177877197266C121.09685054016113,156.18577877197265,129.08385054016114,156.13117877197266,125.86685054016114,152.80537877197264C126.67085054016113,152.56917877197264,128.27985054016114,152.11477877197265,129.08385054016114,151.87857877197266C135.38885054016112,142.59177877197266,117.14935054016114,144.62717877197267,120.27485054016114,152.46007877197266ZM64.03915054016113,146.69897877197266C60.365650540161134,148.44367877197266,61.62665054016113,152.87807877197267,61.791150540161134,156.05857877197266C65.30015054016113,155.44057877197267,69.17465054016114,157.58507877197266,72.00745054016113,154.45927877197266C73.10405054016113,149.80677877197266,68.84575054016113,145.11787877197264,64.03915054016113,146.69897877197266ZM74.67575054016113,150.82447877197265C73.34165054016114,153.22337877197265,71.71505054016113,155.62237877197265,71.23985054016114,158.38477877197266C71.29475054016113,158.62107877197266,71.36785054016113,159.11177877197267,71.42265054016113,159.34797877197266C72.75685054016114,159.56607877197266,75.44335054016113,160.02047877197265,76.79585054016113,160.23847877197267C78.62345054016113,157.33067877197266,79.88445054016114,153.91407877197264,78.51375054016114,150.55187877197267C77.54515054016113,150.62457877197266,75.64445054016113,150.75177877197265,74.67575054016113,150.82447877197265C73.46955054016112,149.98847877197267,73.46955054016112,149.98847877197267,74.67575054016113,150.82447877197265ZM107.07925054016113,156.51287877197265L111.41065054016113,156.80367877197267C109.76585054016114,160.12947877197266,116.93005054016113,161.14717877197265,117.16765054016113,157.69417877197264C117.95385054016113,157.23977877197265,119.52485054016114,156.31297877197267,120.31085054016113,155.84047877197264C119.52485054016114,155.98587877197266,117.93485054016114,156.25847877197265,117.14935054016114,156.38567877197266C116.65585054016114,154.33197877197267,116.03445054016113,152.31467877197267,115.26695054016113,150.33377877197265C111.77615054016113,150.58817877197265,107.73715054016114,152.85997877197266,107.07925054016113,156.51287877197265ZM77.70965054016114,159.85687877197265C78.98895054016114,160.34757877197265,81.56585054016114,161.31077877197265,82.86345054016114,161.80147877197265L83.83205054016113,161.80147877197265C87.67005054016113,160.82007877197265,89.18695054016113,156.25847877197265,87.94415054016113,152.75087877197265C82.80865054016114,151.31517877197265,79.61035054016114,155.89497877197266,77.70965054016114,159.85687877197265ZM88.89455054016113,156.13117877197266C89.00425054016114,157.42157877197266,89.26005054016113,159.98407877197266,89.36975054016114,161.25627877197266C84.81895054016114,163.60067877197264,95.23635054016113,165.74517877197266,94.66975054016113,161.89227877197266L98.83675054016113,161.96497877197265C101.59645054016113,156.11307877197265,92.76905054016113,153.49597877197266,88.89455054016113,156.13117877197266ZM100.48155054016114,154.31387877197267C99.64085054016114,156.76727877197266,99.73225054016113,159.16627877197266,100.79225054016113,161.52887877197264C99.82365054016114,164.61837877197266,106.69545054016113,164.69107877197266,105.69025054016113,161.56517877197265L107.95645054016113,161.60157877197264C109.65615054016114,157.47607877197265,104.59365054016114,152.62367877197266,100.48155054016114,154.31387877197267ZM120.31085054016113,155.84047877197264C121.66385054016114,154.78637877197266,121.66385054016114,154.78637877197266,120.31085054016113,155.84047877197264ZM61.791150540161134,156.05857877197266C61.133250540161136,157.34887877197266,61.133250540161136,157.34887877197266,61.791150540161134,156.05857877197266Z" fill="#FDEB78" fill-opacity="1" style="mix-blend-mode:passthrough"/></g><g><path d="M144.23487854003906,126.74419125C146.33661854003907,125.21758825,149.16940854003906,124.27255425,151.63667854003907,125.67192925L151.67323854003905,127.10765125C149.15113854003906,127.68922125,146.66559854003907,127.56200125,144.23487854003906,126.74419125Z" fill="#FEDC76" fill-opacity="1" style="mix-blend-mode:passthrough"/></g><g><path d="M67.85926818847656,133.4684869604492C70.36308818847657,131.9418869604492,72.48310818847656,129.8882469604492,74.34726818847656,127.63469696044922C86.29976818847656,132.75971696044923,99.98856818847656,127.30756796044922,112.48936818847656,130.4698069604492C100.66476818847656,142.1010969604492,81.18246818847656,143.19149696044923,67.85926818847656,133.4684869604492Z" fill="#E04E1C" fill-opacity="1" style="mix-blend-mode:passthrough"/></g><g><path d="M140.63408270039062,131.1240664013672C140.48786990039062,128.5797364013672,141.69409290039061,127.12583640136718,144.2344729003906,126.74418640136719C144.3989529003906,129.2885264013672,143.19273290039064,130.7424164013672,140.63408270039062,131.1240664013672ZM153.79282290039063,127.54382540136719L154.41422290039063,127.47113440136718L154.30452290039062,127.6710514013672C154.1766229003906,127.63469840136719,153.92072290039061,127.5801774013672,153.79282290039063,127.54382540136719Z" fill="#FEDC76" fill-opacity="1" style="mix-blend-mode:passthrough"/></g><g><path d="M145.71524047851562,131.2331114501953L150.0832204785156,129.5611114501953C150.35736047851563,129.88824045019533,150.90564047851564,130.5243284501953,151.17978047851562,130.8514614501953L150.81426047851562,131.94188145019532C148.71252047851561,132.6688314501953,147.8535404785156,134.21361145019532,148.25561047851562,136.5762114501953C147.65250047851563,136.0491614501953,146.4280064785156,134.9769214501953,145.80661177851562,134.4498714501953C145.78834017851563,133.63205145019532,145.73351207851562,132.03276145019532,145.71524047851562,131.2331114501953Z" fill="#ECAF55" fill-opacity="1" style="mix-blend-mode:passthrough"/></g><g><path d="M145.8063708251953,134.4498714501953C142.02319082519531,137.13959145019533,142.02319082519531,128.9432064501953,145.7149708251953,131.2331114501953C145.73317082519532,132.03276145019532,145.78807082519532,133.63205145019532,145.8063708251953,134.4498714501953ZM150.81397082519533,131.94188145019532C150.96017082519532,132.97779145019533,151.23427082519532,135.0859614501953,151.3622708251953,136.14004145019533C154.3594708251953,136.5762114501953,154.06707082519532,130.6333714501953,151.17947082519532,130.8514614501953L150.81397082519533,131.94188145019532ZM140.6342108251953,131.1240614501953C136.75969082519532,130.8878114501953,130.28996082519532,135.9037814501953,137.5272808251953,136.6307314501953C137.78315082519532,136.30360145019532,138.31314082519532,135.64934145019532,138.5690108251953,135.3222114501953C139.0807508251953,134.26814145019532,140.1224908251953,132.1781414501953,140.6342108251953,131.1240614501953Z" fill="#FEDC76" fill-opacity="1" style="mix-blend-mode:passthrough"/></g><g><path d="M32.82406997680664,134.34084116210937C34.26787997680664,130.05181116210937,40.627939976806644,134.92240116210937,37.81342997680664,138.01194116210937C36.11375997680664,136.83064116210937,34.45063997680664,135.61300116210938,32.82406997680664,134.34084116210937Z" fill="#FFCD73" fill-opacity="1" style="mix-blend-mode:passthrough"/></g><g><path d="M30.92346760119629,134.32266235351562L32.82418060119629,134.34083175351563C34.45075060119629,135.61299235351564,36.11387060119629,136.83065235351563,37.81354060119629,138.01194235351562L38.98321060119629,144.20921235351562C33.20797060119629,145.66316235351562,29.47966060119629,139.28411235351564,30.92346760119629,134.32266235351562Z" fill="#ECAF55" fill-opacity="1" style="mix-blend-mode:passthrough"/></g><g><path d="M137.52700805664062,136.63072984863282C137.78287705664061,136.3036058486328,138.31287405664062,135.64934884863283,138.56873805664063,135.3222198486328C138.31287405664062,135.64934884863283,137.78287705664061,136.3036058486328,137.52700805664062,136.63072984863282Z" fill="#FFCD73" fill-opacity="1" style="mix-blend-mode:passthrough"/></g><g><path d="M148.2553253173828,136.5762176513672L149.86361531738282,136.88517665136717L149.9367153173828,137.75751765136718C149.51635531738282,137.46674365136718,148.67566531738282,136.88517665136717,148.2553253173828,136.5762176513672Z" fill="#ECAF55" fill-opacity="1" style="mix-blend-mode:passthrough"/></g><g><path d="M149.8633270263672,136.88516090722655L151.36195702636718,136.14002990722656C151.01471702636718,136.53984890722657,150.2836670263672,137.35766990722655,149.93642682636718,137.75749990722656L149.8633270263672,136.88516090722655Z" fill="#FEDC76" fill-opacity="1" style="mix-blend-mode:passthrough"/></g><g><path d="M41.5778714699707,137.63029284472657C46.80482046997071,135.61300084472657,52.561750469970704,140.01107084472656,49.19898046997071,145.44503084472657C48.6324304699707,145.88120084472655,47.4993104699707,146.77171084472656,46.9327604699707,147.22604084472655C46.1286104699707,147.71674084472656,44.520320469970706,148.71634084472657,43.716170469970706,149.20704084472655C40.737174469970704,146.09929084472657,41.1940744699707,141.55584084472656,41.5778714699707,137.63029284472657Z" fill="#FFCD73" fill-opacity="1" style="mix-blend-mode:passthrough"/></g><g><path d="" fill="#FEDC76" fill-opacity="1" style="mix-blend-mode:passthrough"/></g><g><path d="M137.49102783203125,138.26638793945312L140.76244783203126,138.77524993945312C141.21933783203124,138.93881493945312,142.13314783203126,139.2477739394531,142.59004783203125,139.41133793945312L144.05213783203126,140.22915793945313L144.27144783203124,141.48314793945312C143.61350783203125,141.99201793945312,142.33418783203126,143.02791793945312,141.69452783203124,143.53679793945312L140.50657783203124,143.97296793945313C138.56931783203126,142.6826279394531,137.74689683203124,140.46542793945312,137.49102783203125,138.26638793945312Z" fill="#FFCD73" fill-opacity="1" style="mix-blend-mode:passthrough"/></g><g><path d="M140.76189862060548,138.77523803710938C141.21879862060547,138.93880203710938,142.13259862060548,139.24776203710937,142.58949862060547,139.41132603710938C142.13259862060548,139.24776203710937,141.21879862060547,138.93880203710938,140.76189862060548,138.77523803710938ZM125.41009862060547,140.6289680371094L126.06799862060547,139.97470803710937L125.41009862060547,140.6289680371094ZM132.06259862060546,141.82843803710938C132.35499862060547,141.86478803710938,132.95809862060548,141.95564803710937,133.25049862060547,142.01016803710937L132.06259862060546,141.82843803710938ZM144.05159862060546,140.22914803710938L144.27089862060546,141.48313803710937L144.05159862060546,140.22914803710938ZM148.51099862060548,140.24731803710938C149.18719862060547,140.1382780371094,150.53959862060546,139.93835803710937,151.21579862060548,139.82931803710937C151.80069862060546,142.46451803710937,150.63099862060545,143.42772803710938,147.74339862060546,142.7007780371094C147.92619862060548,142.08287803710937,148.32819862060546,140.86521803710937,148.51099862060548,140.24731803710938ZM108.37677862060546,145.57224803710938C114.29819862060546,144.62721803710937,119.03169862060547,139.92018803710937,125.41009862060547,140.6289680371094C123.76519862060547,142.80982803710938,122.99759862060547,146.28102803710937,119.76279862060547,146.62632803710937C113.21989862060546,148.28013803710937,107.09745862060547,151.55143803710936,100.26221362060546,151.82403803710937C98.27011862060547,145.88119803710939,104.50225862060547,146.55361803710937,108.37677862060546,145.57224803710938Z" fill="#FEDC76" fill-opacity="1" style="mix-blend-mode:passthrough"/></g><g><path d="M133.30532168457032,147.20788017578124C129.3576985545703,148.93440017578126,127.43871168457031,141.84661287578126,132.0625516845703,141.82843017578125L133.2505016845703,142.01016417578126C133.5794616845703,142.33729217578124,134.2556716845703,143.02790017578124,134.5846416845703,143.35503017578125L135.04154168457032,144.89980017578125C134.6029116845703,145.48137017578125,133.7439416845703,146.64449017578124,133.30532168457032,147.20788017578124Z" fill="#FFCD73" fill-opacity="1" style="mix-blend-mode:passthrough"/></g><g><path d="M133.25039672851562,142.01018403808592C133.57936572851563,142.33731303808594,134.25557672851562,143.02791903808594,134.58454672851562,143.35504903808595C134.25557672851562,143.02791903808594,133.57936572851563,142.33731303808594,133.25039672851562,142.01018403808592ZM141.69393672851564,143.53678903808594C142.33359672851563,143.02791903808594,143.61289672851564,141.99201503808592,144.27089672851562,141.48313903808594C144.16119672851562,142.31913003808594,143.97839672851563,144.00929903808594,143.86879672851563,144.84529903808593L142.24221672851561,144.71808903808594L141.69393672851564,143.53678903808594Z" fill="#FEDC76" fill-opacity="1" style="mix-blend-mode:passthrough"/></g><g><path d="M51.28285781201172,143.11879689648438C54.17047981201172,142.80983689648437,57.46016981201172,142.44636989648438,59.17810981201172,145.39052889648437C58.520169812011716,147.71677889648439,56.85704981201172,149.49780889648437,55.37668981201172,151.35152889648438C54.33495981201172,151.07892889648437,52.23320981201172,150.55187889648437,51.19147681201172,150.27927889648439C51.15492361201172,147.89849889648437,51.17320190201172,145.5177388964844,51.28285781201172,143.11879689648438Z" fill="#FFCD73" fill-opacity="1" style="mix-blend-mode:passthrough"/></g><g style="opacity:0.9700000286102295;"><path d="M140.50656127929688,143.9729609404297L141.69451127929688,143.5367889404297L142.24279127929688,144.71808894042968C141.80416127929686,144.51817494042967,140.92691527929688,144.1547079404297,140.50656127929688,143.9729609404297Z" fill="#B58D4A" fill-opacity="1" style="mix-blend-mode:passthrough"/></g><g><path d="M46.932899475097656,147.22606966308595C47.499455475097655,146.77172966308595,48.632569475097654,145.88120466308592,49.199129475097656,145.44503266308593C49.93016947509766,148.53458966308594,49.18084947509766,149.13431966308593,46.932899475097656,147.22606966308595ZM71.23999947509765,145.33600266308594C73.56109947509765,144.42730766308594,75.38869947509765,144.99070506308593,76.74109947509766,147.00799966308594C74.29219947509766,148.22563966308593,72.46449947509765,147.66225966308593,71.23999947509765,145.33600266308594Z" fill="#FEDC76" fill-opacity="1" style="mix-blend-mode:passthrough"/></g><g><path d="M120.2751001640625,152.46011449707032C117.1498931640625,144.62719449707032,135.3894431640625,142.59173449707032,129.0841631640625,151.87854449707032C128.2800131640625,152.1148044970703,126.6717231640625,152.56915449707031,125.8675731640625,152.8054144970703L124.3323831640625,152.8417644970703C123.3272031640625,152.7508944970703,121.2985631640625,152.55098449707032,120.2751001640625,152.46011449707032Z" fill="#FFCD73" fill-opacity="1" style="mix-blend-mode:passthrough"/></g><g><path d="M135.04146681640626,144.8998260498047C138.62356681640625,144.8998260498047,136.28424681640624,150.75178604980468,133.63420581640625,148.4437160498047L133.30523681640625,147.20789604980467C133.74386181640625,146.64451604980468,134.60283681640624,145.4813790498047,135.04146681640626,144.8998260498047Z" fill="#FEDC76" fill-opacity="1" style="mix-blend-mode:passthrough"/></g><g><path d="M64.03928697387695,146.69903006933595C68.84588697387696,145.11791106933595,73.10416697387696,149.80675106933595,72.00766697387695,154.45924106933595C69.17485697387696,157.58517106933593,65.30032697387695,155.44063106933595,61.791329973876955,156.05853106933594C61.626844973876956,152.87812106933595,60.365796973876954,148.44370106933593,64.03928697387695,146.69903006933595Z" fill="#FFCD73" fill-opacity="1" style="mix-blend-mode:passthrough"/></g><g><path d="M79.77496337890625,149.5886732861328C84.80087337890625,148.75268328613282,89.68058337890625,146.6081650861328,94.83446337890625,146.6990385761328C95.51066337890624,147.9348632861328,96.86306337890625,150.4246632861328,97.55756337890625,151.6786632861328C91.67266337890625,153.2597832861328,85.03846337890624,152.7145632861328,79.77496337890625,149.5886732861328Z" fill="#FEDC76" fill-opacity="1" style="mix-blend-mode:passthrough"/></g><g><path d="M74.67595101074218,150.82449150683593C73.4697310107422,149.98850050683595,73.4697310107422,149.98850050683595,74.67595101074218,150.82449150683593Z" fill="#FFCD73" fill-opacity="1" style="mix-blend-mode:passthrough"/></g><g><path d="M49.16286087036133,154.44108161621094C49.674588870361326,153.40517161621094,50.67977087036133,151.31519161621094,51.19150087036133,150.27928161621094C52.23324087036133,150.55188861621093,54.33498087036133,151.07893361621095,55.376720870361325,151.35154161621094C55.23051087036133,154.40474161621094,51.70323087036133,155.64056161621093,49.16286087036133,154.44108161621094Z" fill="#FEDC76" fill-opacity="1" style="mix-blend-mode:passthrough"/></g><g><path d="M74.67566135253907,150.8244868828125C75.64429135253906,150.7517958828125,77.54500135253906,150.6245706828125,78.51363135253906,150.5518798828125C79.88434135253907,153.9140398828125,78.62329135253907,157.3307098828125,76.79568135253906,160.2385298828125C75.44326135253907,160.0204398828125,72.75668135253906,159.5660998828125,71.42252435253906,159.3480198828125L71.23976135253906,158.3847998828125C71.71493635253906,155.6223698828125,73.34151135253906,153.2234298828125,74.67566135253907,150.8244868828125Z" fill="#FFCD73" fill-opacity="1" style="mix-blend-mode:passthrough"/></g><g><path d="M97.5572738647461,151.67864990234375L98.01417686474609,151.75134070234375L97.5572738647461,151.67864990234375Z" fill="#FEDC76" fill-opacity="1" style="mix-blend-mode:passthrough"/></g><g><path d="M107.07939147949219,156.51289126953125C107.73732947949219,152.85996126953125,111.77633147949219,150.58822626953125,115.26706147949218,150.33380126953125C116.03465147949218,152.31474126953125,116.65603147949219,154.33203126953126,117.14949147949218,156.38568126953126L117.1677914794922,157.69419126953125C115.28533147949219,157.13081126953125,113.36634147949219,156.84002126953126,111.41080147949219,156.80368126953124L107.07939147949219,156.51289126953125Z" fill="#FFCD73" fill-opacity="1" style="mix-blend-mode:passthrough"/></g><g><path d="" fill="#FEDC76" fill-opacity="1" style="mix-blend-mode:passthrough"/></g><g><path d="M77.70948791503906,159.85687375976562C79.61019791503907,155.89497375976563,82.80850791503906,151.31517375976563,87.94408791503906,152.7509127597656C89.18688791503907,156.25845375976562,87.66993791503906,160.82008375976562,83.83196791503906,161.80147375976563L82.86333791503907,161.80147375976563C81.56573791503907,161.31077375976562,78.98881791503906,160.34756375976562,77.70948791503906,159.85687375976562Z" fill="#FFCD73" fill-opacity="1" style="mix-blend-mode:passthrough"/></g><g><path d="M124.33161752978516,152.84178478515625L125.86680552978515,152.80543278515626C129.08339552978515,156.13123978515625,121.09675552978516,156.18575978515625,124.33161752978516,152.84178478515625ZM133.37826552978515,152.60552978515625L134.76720552978514,153.31430878515624C134.42000552978516,153.47787278515625,133.72550552978515,153.82316978515624,133.35997552978515,153.98673978515626L133.37826552978515,152.60552978515625Z" fill="#FEDC76" fill-opacity="1" style="mix-blend-mode:passthrough"/></g><g><path d="M88.8944320678711,156.131244609375C92.7689520678711,153.496044609375,101.59633206787109,156.113074609375,98.8366020678711,161.965034609375L94.66966206787109,161.892344609375C93.3537920678711,161.728784609375,90.7037620678711,161.419824609375,89.3696140678711,161.256254609375C89.2599580678711,159.984094609375,89.00409506787109,157.421584609375,88.8944320678711,156.131244609375Z" fill="#FFCD73" fill-opacity="1" style="mix-blend-mode:passthrough"/></g><g><path d="M100.48200508837891,154.31384674121094C104.5941130883789,152.62368474121095,109.65658308837891,157.47608474121094,107.95691308837891,161.60155474121095L105.6906830883789,161.56519474121095C104.46618308837891,161.54702474121095,102.0171930883789,161.52884474121095,100.7926960883789,161.52884474121095C99.73268208837891,159.16625474121093,99.6413040883789,156.76731474121092,100.48200508837891,154.31384674121094Z" fill="#FFCD73" fill-opacity="1" style="mix-blend-mode:passthrough"/></g><g><path d="M120.31127445068358,155.8404419814453C121.6636744506836,154.7863649814453,121.6636744506836,154.7863649814453,120.31127445068358,155.8404419814453ZM61.791327450683596,156.0585309814453C61.13339045068359,157.34887098144532,61.13339045068359,157.34887098144532,61.791327450683596,156.0585309814453ZM111.41077445068359,156.80366098144532C113.3663744506836,156.84001098144532,115.28537445068359,157.1307909814453,117.1677744506836,157.69417098144532C116.9301744506836,161.1471909814453,109.76597445068359,160.1294709814453,111.41077445068359,156.80366098144532ZM117.14947445068358,156.3856609814453C117.9353744506836,156.25844098144532,119.52537445068359,155.98583698144532,120.31127445068358,155.8404419814453C119.52537445068359,156.31296098144531,117.9536744506836,157.23983098144532,117.1677744506836,157.69417098144532L117.14947445068358,156.3856609814453ZM71.42277445068359,159.34800098144532C71.36797445068359,159.1117409814453,71.2948744506836,158.6210509814453,71.2400444506836,158.38478098144532L71.42277445068359,159.34800098144532ZM82.86357445068359,161.8014609814453L83.8322744506836,161.8014609814453L82.86357445068359,161.8014609814453ZM94.6699744506836,161.89232098144532C95.2364744506836,165.74518098144532,84.81917445068359,163.6006509814453,89.3698744506836,161.2562309814453C90.70407445068359,161.41980098144532,93.35407445068358,161.7287609814453,94.6699744506836,161.89232098144532ZM100.79247445068359,161.52885098144532C102.01697445068359,161.52885098144532,104.4658744506836,161.5470209814453,105.69037445068359,161.56521098144532C106.6955744506836,164.69110098144532,99.8237744506836,164.61841098144532,100.79247445068359,161.52885098144532Z" fill="#FEDC76" fill-opacity="1" style="mix-blend-mode:passthrough"/></g></g></g></svg>