<svg xmlns="http://www.w3.org/2000/svg" xmlns:xlink="http://www.w3.org/1999/xlink" fill="none" version="1.1" width="166" height="166" viewBox="0 0 166 166"><g><g><ellipse cx="83" cy="83" rx="83" ry="83" fill="#2F2F2F" fill-opacity="1"/></g><g><path d="M122.0154,128L44.98437,128C42.78324,128,41,126.1102,41,123.7812L41.000000216181,53.4688C41.000000216181,51.1398,42.78333,49.2501,44.98437,49.2501L52.953,49.2501L52.953,53.4688C52.953,58.907,57.115899999999996,63.3126,62.2499,63.3126C67.3839,63.3126,71.5469,58.907,71.5469,53.4688L71.5469,49.2502L95.4531,49.2502L95.4531,53.4689C95.4531,58.9071,99.6157,63.3127,104.75,63.3127C109.884,63.3127,114.0468,58.9071,114.0468,53.4689L114.0468,49.2502L122.0156,49.2502C124.2168,49.2502,126,51.1399,126,53.4689L126,123.7812C125.9998,126.1103,124.2166,128,122.0154,128ZM118.031,71.75L48.96883,71.75L48.96883,119.5625L118.031,119.5625L118.031,71.75ZM70.2186,91.4376C71.3185,91.4376,72.3145,91.91,73.0367,92.6736L79.5154,99.5344L95.2926,82.8297C96.0133,82.06620000000001,97.0094,81.5938,98.1092,81.5938C100.3103,81.5938,102.0937,83.4834,102.0937,85.8123C102.0937,86.9768,101.6482,88.0318,100.926,88.79509999999999L82.3322,108.4826C81.6115,109.2463,80.6155,109.7187,79.5154,109.7187C78.4156,109.7187,77.4196,109.2463,76.6973,108.4826L67.4006,98.63929999999999C66.6798,97.8758,66.2344,96.8207,66.2344,95.6563C66.2343,93.327,68.0177,91.4376,70.2186,91.4376ZM104.7499,57.6875C102.55019999999999,57.6875,100.7653,55.7979,100.7653,53.4687L100.7653,42.2188C100.7653,39.88967,102.55,38,104.7499,38C106.951,38,108.7342,39.88967,108.7342,42.2188L108.7342,53.4687C108.7342,55.798,106.951,57.6875,104.7499,57.6875ZM62.2499,57.6875C60.0488,57.6875,58.2655,55.7979,58.2655,53.4687L58.2655,42.2188C58.2655,39.88967,60.0488,38,62.2499,38C64.4495,38,66.2344,39.88967,66.2344,42.2188L66.2344,53.4687C66.2343,55.798,64.4496,57.6875,62.2499,57.6875Z" fill="#FFFFFF" fill-opacity="1" style="mix-blend-mode:passthrough"/></g></g></svg>