<svg xmlns="http://www.w3.org/2000/svg" xmlns:xlink="http://www.w3.org/1999/xlink" fill="none" version="1.1" width="166" height="166" viewBox="0 0 166 166"><g><g><ellipse cx="83" cy="83" rx="83" ry="83" fill="#2F2F2F" fill-opacity="1"/></g><g><path d="M64.2269,78.199L31.86626,110.5676C30.304090000000002,112.1301,27.77089,112.1301,26.20872,110.5676L24.82739,109.1859C23.26575,107.6239,23.26575,105.0917,24.82739,103.52969999999999L47.3275,81.0241C48.8892,79.46209999999999,48.8892,76.93,47.3275,75.36789999999999L24.8284,52.86331C23.26637,51.3009,23.26681,48.768,24.8294,47.20614L26.20872,45.82746C27.77106,44.26585,30.30348,44.26629,31.86526,45.82846L64.2244,78.19550000000001C64.2248,78.19579999999999,64.2252,78.196,64.2257,78.196C64.22720000000001,78.196,64.22800000000001,78.1979,64.2269,78.199M68.2299,113.0436L110,113.0436C112.2091,113.0436,114,114.8344,114,117.0436L114,119C114,121.2091,112.2091,123,110,123L68.2299,123C66.02080000000001,123,64.2299,121.2091,64.2299,119L64.2299,117.0436C64.2299,114.8344,66.02080000000001,113.0436,68.2299,113.0436" fill="#FFFFFF" fill-opacity="1" style="mix-blend-mode:passthrough"/></g></g></svg>