<svg xmlns="http://www.w3.org/2000/svg" xmlns:xlink="http://www.w3.org/1999/xlink" fill="none" version="1.1" width="166" height="166" viewBox="0 0 166 166"><g><g><ellipse cx="83" cy="83" rx="83" ry="83" fill="#2F2F2F" fill-opacity="1"/></g><g><g><path d="M82.2085625,43.215C95.03456249999999,43.215,105.4755625,53.656,105.4755625,66.482C105.4755625,79.30799999999999,95.03456249999999,89.749,82.2085625,89.749C69.3825625,89.749,58.9415625,79.30799999999999,58.9415625,66.482C58.9415625,53.6428,69.3825625,43.215,82.2085625,43.215ZM82.2085625,35C64.8245625,35,50.7265625,49.098,50.7265625,66.482C50.7265625,83.866,64.8245625,97.964,82.2085625,97.964C99.5925625,97.964,113.6905625,83.866,113.6905625,66.482C113.6905625,49.098,99.5925625,35,82.2085625,35Z" fill="#FFFFFF" fill-opacity="1" style="mix-blend-mode:passthrough"/><path d="M111.67666249999999,78.9297Q114.1905625,72.9873,114.1905625,66.482Q114.1905625,59.9767,111.67666249999999,54.0343Q109.2486625,48.295,104.82216249999999,43.868449999999996Q100.3955625,39.441919999999996,94.6562625,37.01395Q88.7137625,34.500003,82.2085625,34.500003Q75.7033625,34.5,69.7608625,37.01395Q64.0215625,39.44191,59.595012499999996,43.868449999999996Q55.168482499999996,48.295,52.7405125,54.0343Q50.2265655,59.9768,50.2265655,66.482Q50.2265625,72.9872,52.7405125,78.9298Q55.1684725,84.669,59.595012499999996,89.09559999999999Q64.0215625,93.5221,69.7608625,95.95009999999999Q75.7032625,98.464,82.2085625,98.464Q88.7138625,98.464,94.6562625,95.95009999999999Q100.3956625,93.5221,104.82216249999999,89.09559999999999Q109.2486625,84.6691,111.67666249999999,78.9297ZM110.7556625,54.4239Q113.1905625,60.179500000000004,113.1905625,66.482Q113.1905625,72.78450000000001,110.7556625,78.5401Q108.40356249999999,84.09989999999999,104.1150625,88.3885Q99.82646249999999,92.67699999999999,94.2666625,95.0291Q88.5109625,97.464,82.2085625,97.464Q75.9060625,97.464,70.1504625,95.0291Q64.5907625,92.67699999999999,60.3021125,88.3885Q56.0134825,84.09989999999999,53.6614925,78.5401Q51.2265625,72.7844,51.2265655,66.482Q51.2265655,60.1796,53.6614925,54.4239Q56.0134725,48.8642,60.302122499999996,44.57555Q64.5907625,40.28691,70.1504625,37.93493Q75.9061625,35.5,82.2085625,35.500003Q88.5109625,35.500003,94.2666625,37.93493Q99.82646249999999,40.28693,104.1150625,44.575559999999996Q108.4036625,48.8642,110.7556625,54.4239ZM65.4118625,49.6802Q58.4415625,56.6477,58.4415625,66.482Q58.4415725,76.3087,65.4117625,83.27879999999999Q72.3819625,90.249,82.2085625,90.249Q92.0352625,90.249,99.00536249999999,83.27879999999999Q105.9755625,76.3086,105.9755625,66.482Q105.9755625,56.6554,99.00536249999999,49.6852Q92.0351625,42.71501,82.2085625,42.71501Q72.3797625,42.71501,65.4118625,49.6802ZM66.1188625,82.57169999999999Q59.4415725,75.8945,59.4415725,66.482Q59.4415625,57.062,66.1187625,50.3874Q72.7937625,43.71501,82.2085625,43.71501Q91.6210625,43.715,98.29826249999999,50.3923Q104.97546249999999,57.0697,104.9755625,66.482Q104.97546249999999,75.89439999999999,98.29826249999999,82.57169999999999Q91.62096249999999,89.24889999999999,82.2085625,89.249Q72.79616250000001,89.249,66.1188625,82.57169999999999Z" fill-rule="evenodd" fill="#FFFFFF" fill-opacity="1"/></g><g><path d="M39.10521,130.79757880859376C38.86671,130.79757880859376,38.62821,130.77107880859376,38.38971,130.73127880859374C36.16371,130.33377880859376,34.666459,128.21377880859376,35.0639588,125.97447880859374C39.21121,102.44257880859375,62.4517,89.73577880859375,82.2207,89.73577880859375C84.4865,89.73577880859375,86.32820000000001,91.57752880859375,86.32820000000001,93.84327880859375C86.32820000000001,96.10902880859375,84.4865,97.95077880859375,82.2207,97.95077880859375C69.1297,97.95077880859375,46.936,105.94047880859375,43.159710000000004,127.40547880859376C42.78871,129.39297880859374,41.06621,130.79747880859375,39.10521,130.79757880859376Z" fill="#FFFFFF" fill-opacity="1" style="mix-blend-mode:passthrough"/><path d="M42.04811,130.23157880859375Q43.34124,129.15787880859375,43.65122,127.49727880859375L43.65216,127.49217880859375Q46.1704,113.17787880859375,59.458,105.05537880859374Q64.8406,101.76507880859376,71.25710000000001,100.01697880859375Q77.0061,98.45078880859376,82.2207,98.45077880859375Q84.1271,98.45077880859375,85.4777,97.10023880859374Q86.82820000000001,95.74968880859375,86.82820000000001,93.84327880859375Q86.82820000000001,91.93686880859374,85.4777,90.58631880859375Q84.1271,89.23577880859375,82.2207,89.23578380859375Q74.6026,89.23578180859376,66.9474,91.61135880859375Q59.058,94.05964880859375,52.4988,98.62012880859375Q37.54478,109.01727880859374,34.571655,125.88717880859375Q34.237758,127.76807880859374,35.333665,129.33067880859375Q36.42631,130.88857880859376,38.30751,131.22447880859374Q38.74584,131.29757880859376,39.10521,131.29757880859376Q40.7642,131.29747880859375,42.04811,130.23157880859375ZM42.66788,127.31547880859375Q42.66758,127.31717880859375,42.66728,127.31887880859375Q42.42252,128.62087880859374,41.40931,129.46217880859376Q40.40317,130.29757880859376,39.10521,130.29757880859376Q38.82859,130.29757880859376,38.47191,130.23807880859374Q37.00817,129.97667880859376,36.15238,128.75647880859376Q35.294959,127.53397880859376,35.556262,126.06187880859375Q38.45736,109.60067880859376,53.0696,99.44117880859375Q59.501999999999995,94.96890880859375,67.2438,92.56642880859376Q74.7542,90.23578380859375,82.2207,90.23578380859375Q83.71289999999999,90.23577880859375,84.7706,91.29342880859375Q85.82820000000001,92.35107880859375,85.82820000000001,93.84327880859375Q85.82820000000001,95.33547880859375,84.7706,96.39312880859374Q83.71289999999999,97.45077880859375,82.2207,97.45077880859375Q76.8724,97.45077880859375,70.99430000000001,99.05214880859376Q64.4405,100.83757880859375,58.9364,104.20217880859374Q45.2661,112.55867880859375,42.66818,127.31377880859375L42.66788,127.31547880859375Z" fill-rule="evenodd" fill="#FFFFFF" fill-opacity="1"/></g><g><path d="M125.9998390625,130.79747880859375C124.0388390625,130.79747880859375,122.3162390625,129.39297880859374,121.9585390625,127.40557880859376C118.16903906249999,105.95377880859375,95.9885390625,97.95077880859375,82.8975390625,97.95077880859375C80.6317890625,97.95077880859375,78.7900390625,96.10902880859375,78.7900390625,93.84327880859375C78.7900390625,91.57752880859375,80.6317890625,89.73577880859375,82.8975390625,89.73577880859375C102.6533390625,89.73577880859375,125.8938390625,102.44257880859375,130.05423906250002,125.97457880859375C130.4517390625,128.21377880859376,128.9545390625,130.33377880859376,126.7285390625,130.73127880859374C126.4767390625,130.77107880859376,126.2382390625,130.79757880859376,125.9998390625,130.79747880859375Z" fill="#FFFFFF" fill-opacity="1" style="mix-blend-mode:passthrough"/><path d="M125.9997390625,131.29747880859375Q126.3481390625,131.29757880859376,126.80653906250001,131.22517880859374L126.8164390625,131.22347880859374Q128.6919390625,130.88857880859376,129.78453906250002,129.33067880859375Q130.8804390625,127.76807880859374,130.5466390625,125.88747880859376Q127.5639390625,109.01757880859375,112.6095390625,98.62012880859375Q106.0504390625,94.05970880859375,98.1634390625,91.61137880859376Q90.5107390625,89.23577880859375,82.8975390625,89.23577880859375Q80.9911190625,89.23577880859375,79.6405790625,90.58631880859375Q78.2900390625,91.93685880859375,78.2900390625,93.84327880859375Q78.2900390625,95.74969880859375,79.6405790625,97.10023880859374Q80.9911190625,98.45077880859375,82.8975490625,98.45077880859375Q88.1103690625,98.45077880859375,93.8591390625,100.01877880859375Q100.2728390625,101.76827880859375,105.6552390625,105.06027880859375Q118.9386390625,113.18497880859375,121.4664390625,127.49407880859374Q121.7655390625,129.15547880859376,123.0581390625,130.23117880859374Q124.3395390625,131.29747880859375,125.9997390625,131.29747880859375ZM128.9658390625,128.75647880859376Q128.11153906250001,129.97457880859375,126.64563906250001,130.23817880859374Q126.26803906250001,130.29747880859375,125.9998390625,130.29747880859375Q124.7011390625,130.29747880859375,123.6977390625,129.46247880859374Q122.6851390625,128.61977880859376,122.4506390625,127.31697880859375Q119.8449390625,112.56707880859375,106.1770390625,104.20717880859375Q100.6732390625,100.84087880859374,94.1222390625,99.05404880859375Q88.2443190625,97.45077880859375,82.8975490625,97.45077880859375Q81.4053290625,97.45077880859375,80.3476890625,96.39312880859374Q79.2900390625,95.33548880859375,79.2900390625,93.84327880859375Q79.2900390625,92.35106880859375,80.3476890625,91.29342880859375Q81.4053290625,90.23577880859375,82.8975390625,90.23577880859375Q90.3590390625,90.23577880859375,97.8669390625,92.56641880859375Q105.6063390625,94.96893880859375,112.0387390625,99.44117880859375Q126.6517390625,109.60117880859374,129.56193906250002,126.06157880859375Q129.8232390625,127.53387880859376,128.9658390625,128.75647880859376Z" fill-rule="evenodd" fill="#FFFFFF" fill-opacity="1"/></g></g></g></svg>