<svg width="166" height="166" viewBox="0 0 166 166" fill="none" xmlns="http://www.w3.org/2000/svg">
<rect width="166" height="166" rx="83" fill="#2F2F2F"/>
<path d="M36.4912 69.7185C36.7832 68.9646 40.6422 92.2695 58.4835 103.919L56.5141 114.715C61.4734 114.875 66.2148 112.688 69.2912 108.822L69.2806 108.811C79.7378 111.705 93.5394 110.92 111.588 103.013C111.588 103.013 106.258 120.566 96.1458 126.892C77.4023 138.584 47.8776 133.112 36.5814 113.714C33.3699 108.2 28.1625 92.7862 36.4912 69.7185ZM113.461 57.3622C131.714 63.9543 141.809 83.3614 136.659 101.958C134.843 108.063 131.175 120.271 108.615 130.108C107.405 130.645 144.77 84.9371 88.6877 57.9632C96.7288 55.4754 105.308 55.2673 113.461 57.3622ZM119.561 49.6767C120.41 50.6991 68.2029 36.6826 55.601 89.2121V89.1857L55.5887 89.1719C55.1911 88.7217 45.2531 77.3509 45.6692 65.7016C47.9608 46.1224 64.5249 31.2707 84.372 31C90.7897 31 103.63 31 119.561 49.6765V49.6767Z" fill="white"/>
</svg>
